<svg xmlns="http://www.w3.org/2000/svg" xmlns:oryx="http://oryx-editor.org" id="_E97A4965-45F7-4BCE-AD37-B2082FD5A422" width="574" height="442.5" xmlns:xlink="http://www.w3.org/1999/xlink" xmlns:svg="http://www.w3.org/2000/svg"><defs><marker id="_F0A85C59-6FB4-43A9-BE19-4C5844ED92A0start" refX="1" refY="5" markerUnits="userSpaceOnUse" markerWidth="17" markerHeight="11" orient="auto" fill="#000000" stroke="#000000"> 	  		<path id="_F0A85C59-6FB4-43A9-BE19-4C5844ED92A0conditional" d="M 0 5 L 8 0 L 16 5 L 8 10 L 0 5" fill="white" stroke="#000000" stroke-width="1" display="none"/> 			<path id="_F0A85C59-6FB4-43A9-BE19-4C5844ED92A0default" d="M 5 0 L 11 10" fill="white" stroke="#000000" stroke-width="1" display="none"/> 	  	</marker><marker id="_F0A85C59-6FB4-43A9-BE19-4C5844ED92A0end" refX="15" refY="6" markerUnits="userSpaceOnUse" markerWidth="15" markerHeight="12" orient="auto" fill="#000000" stroke="#000000"> 	  		<path id="_F0A85C59-6FB4-43A9-BE19-4C5844ED92A0frame2" d="M 0 1 L 15 6 L 0 11z" fill="#000000" stroke="#000000" stroke-linejoin="round" stroke-width="2"/> 	  	</marker><marker id="_BC542B0C-B858-4AE9-BF5E-3928FFE88D6Fstart" refX="1" refY="5" markerUnits="userSpaceOnUse" markerWidth="17" markerHeight="11" orient="auto" fill="#000000" stroke="#000000"> 	  		<path id="_BC542B0C-B858-4AE9-BF5E-3928FFE88D6Fconditional" d="M 0 5 L 8 0 L 16 5 L 8 10 L 0 5" fill="white" stroke="#000000" stroke-width="1" display="none"/> 			<path id="_BC542B0C-B858-4AE9-BF5E-3928FFE88D6Fdefault" d="M 5 0 L 11 10" fill="white" stroke="#000000" stroke-width="1" display="none"/> 	  	</marker><marker id="_BC542B0C-B858-4AE9-BF5E-3928FFE88D6Fend" refX="15" refY="6" markerUnits="userSpaceOnUse" markerWidth="15" markerHeight="12" orient="auto" fill="#000000" stroke="#000000"> 	  		<path id="_BC542B0C-B858-4AE9-BF5E-3928FFE88D6Fframe2" d="M 0 1 L 15 6 L 0 11z" fill="#000000" stroke="#000000" stroke-linejoin="round" stroke-width="2"/> 	  	</marker><marker id="_753EE17C-E8A1-44EF-81DB-49361E05B372start" refX="1" refY="5" markerUnits="userSpaceOnUse" markerWidth="17" markerHeight="11" orient="auto" fill="#000000" stroke="#000000"> 	  		<path id="_753EE17C-E8A1-44EF-81DB-49361E05B372conditional" d="M 0 5 L 8 0 L 16 5 L 8 10 L 0 5" fill="white" stroke="#000000" stroke-width="1" display="none"/> 			<path id="_753EE17C-E8A1-44EF-81DB-49361E05B372default" d="M 5 0 L 11 10" fill="white" stroke="#000000" stroke-width="1" display="none"/> 	  	</marker><marker id="_753EE17C-E8A1-44EF-81DB-49361E05B372end" refX="15" refY="6" markerUnits="userSpaceOnUse" markerWidth="15" markerHeight="12" orient="auto" fill="#000000" stroke="#000000"> 	  		<path id="_753EE17C-E8A1-44EF-81DB-49361E05B372frame2" d="M 0 1 L 15 6 L 0 11z" fill="#000000" stroke="#000000" stroke-linejoin="round" stroke-width="2"/> 	  	</marker><marker id="_483D12AC-F5E4-41AC-B126-BE2C81F464B7end" refX="10" refY="5" markerUnits="userSpaceOnUse" markerWidth="10" markerHeight="10" orient="auto" stroke="#000000"> 	  		<path id="_483D12AC-F5E4-41AC-B126-BE2C81F464B7frame2" d="M 0 0 L 10 5 L 0 10" fill="none" stroke="#000000"/> 	  	</marker><marker id="_6E4A70A2-4777-4E93-9C2A-D9BF2B7B6FB6end" refX="10" refY="5" markerUnits="userSpaceOnUse" markerWidth="10" markerHeight="10" orient="auto" stroke="#000000"> 	  		<path id="_6E4A70A2-4777-4E93-9C2A-D9BF2B7B6FB6frame2" d="M 0 0 L 10 5 L 0 10" fill="none" stroke="#000000"/> 	  	</marker></defs><g stroke="none" font-family="Verdana, sans-serif" font-size-adjust="none" font-style="normal" font-variant="normal" font-weight="normal" line-heigth="normal" font-size="12"><g class="stencils" transform="translate(16, 16)"><g class="me"/><g class="children"><g id="_621666FE-EAB8-4C5D-942F-2A0ACE259BAA" bpmn2nodeid="processStartEvent"><g class="stencils" transform="translate(120, 165)"><g class="me"><g pointer-events="fill" id="_621666FE-EAB8-4C5D-942F-2A0ACE259BAA">        <defs id="_621666FE-EAB8-4C5D-942F-2A0ACE259BAA__621666FE-EAB8-4C5D-942F-2A0ACE259BAA_5"> 		<radialGradient id="_621666FE-EAB8-4C5D-942F-2A0ACE259BAAbackground" cx="10%" cy="10%" r="100%" fx="10%" fy="10%"> 			<stop offset="0%" stop-color="#ffffff" stop-opacity="1" id="_621666FE-EAB8-4C5D-942F-2A0ACE259BAA__621666FE-EAB8-4C5D-942F-2A0ACE259BAA_6"/> 			<stop id="_621666FE-EAB8-4C5D-942F-2A0ACE259BAAfill_el" offset="100%" stop-color="#9acd32" stop-opacity="1"/> 		</radialGradient> 	</defs> 	     <circle id="_621666FE-EAB8-4C5D-942F-2A0ACE259BAAbg_frame" cx="15" cy="15" r="15" stroke="#000000" fill="url(#_621666FE-EAB8-4C5D-942F-2A0ACE259BAAbackground) white" stroke-width="1" style="stroke-dasharray: 5.5, 3"/>      <circle id="_621666FE-EAB8-4C5D-942F-2A0ACE259BAAframe" cx="15" cy="15" r="15" stroke="#000000" fill="none" stroke-width="1" display="inherit"/>  	<text font-size="11" id="_621666FE-EAB8-4C5D-942F-2A0ACE259BAAtext_name" x="15" y="32" oryx:align="top center" stroke="black" stroke-width="0pt" letter-spacing="-0.01px" fill="#000000" text-anchor="middle" transform="rotate(0 15 32)" visibility="inherit" oryx:fontSize="11"/>   </g></g><g class="children" style="overflow:hidden"/><g class="edge"/></g><g class="controls"><g class="dockers"/><g class="magnets" transform="translate(120, 165)"><g pointer-events="all" display="none" transform="translate(7, 7)"><circle cx="8" cy="8" r="4" stroke="none" fill="red" fill-opacity="0.3"/></g></g></g></g><g id="_997F9E8B-2694-4ADD-A441-30844EBDB25E" bpmn2nodeid="_B7A9B2FC-7598-4E29-80F6-9266B77D9A93"><g class="stencils" transform="translate(195, 140)"><g class="me"><g pointer-events="fill" oryx:minimumSize="50 40" id="_997F9E8B-2694-4ADD-A441-30844EBDB25E">   	<defs id="_997F9E8B-2694-4ADD-A441-30844EBDB25E__997F9E8B-2694-4ADD-A441-30844EBDB25E_17"> 		<radialGradient id="_997F9E8B-2694-4ADD-A441-30844EBDB25Ebackground" cx="10%" cy="10%" r="100%" fx="10%" fy="10%"> 			<stop offset="0%" stop-color="#ffffff" stop-opacity="1" id="_997F9E8B-2694-4ADD-A441-30844EBDB25E__997F9E8B-2694-4ADD-A441-30844EBDB25E_18"/> 			<stop id="_997F9E8B-2694-4ADD-A441-30844EBDB25Efill_el" offset="100%" stop-color="#fafad2" stop-opacity="1"/> 		</radialGradient> 		<radialGradient id="_997F9E8B-2694-4ADD-A441-30844EBDB25Eborderbackground" cx="10%" cy="10%" r="100%" fx="10%" fy="10%"> 			<stop offset="0%" stop-color="#ffffff" stop-opacity="1" id="_997F9E8B-2694-4ADD-A441-30844EBDB25E__997F9E8B-2694-4ADD-A441-30844EBDB25E_19"/> 			<stop id="_997F9E8B-2694-4ADD-A441-30844EBDB25Efill_border" offset="100%" stop-color="#000000" stop-opacity="1" stroke="#000000"/> 		</radialGradient> 	</defs> 	 	<rect id="_997F9E8B-2694-4ADD-A441-30844EBDB25Etext_frame" oryx:anchors="bottom top right left" x="1" y="1" width="94" height="79" rx="10" ry="10" stroke="none" stroke-width="0" fill="none"/> 	<rect id="_997F9E8B-2694-4ADD-A441-30844EBDB25Ebg_frame" oryx:resize="vertical horizontal" x="0" y="0" width="100" height="80" rx="10" ry="10" stroke="#000000" stroke-width="1" fill="url(#_997F9E8B-2694-4ADD-A441-30844EBDB25Ebackground) #ffffcc"/> 		<text font-size="12" id="_997F9E8B-2694-4ADD-A441-30844EBDB25Etext_name" x="50" y="40" oryx:align="middle center" oryx:fittoelem="text_frame" stroke="black" text-anchor="middle" stroke-width="0pt" letter-spacing="-0.01px" fill="#000000" transform="rotate(0 50 40)" visibility="inherit" oryx:fontSize="12"><tspan x="50" y="40" dy="-1" id="ext-gen963">TASK1_WITH_</tspan><tspan x="50" y="40" dy="11" id="ext-gen922">INPUT2</tspan></text>     <g id="_997F9E8B-2694-4ADD-A441-30844EBDB25EmanualTask" transform="scale(0.7,0.7) translate(8,8)" display="none">     	<path oryx:anchors="top left" id="_997F9E8B-2694-4ADD-A441-30844EBDB25Eframe" style="opacity:1;fill:none;fill-opacity:1;stroke-width:1" d="M0.5,3.751l4.083-3.25c0,0,11.166,0.083,12.083,0.083s-2.417,2.917-1.5,2.917     s11.667,0,12.584,0c1.166,1.708-0.168,3.167-0.834,3.667s0.875,1.917-1,4.417c-0.75,0.25,0.75,1.875-1.333,3.333     c-1.167,0.583,0.583,1.542-1.25,2.833c-1.167,0-20.833,0.083-20.833,0.083l-2-1.333V3.751z" stroke="#000000"/> 		<path id="_997F9E8B-2694-4ADD-A441-30844EBDB25Eframe2" oryx:anchors="top left" style="opacity:1;fill:none;stroke-width:2" d="M 13.5 7 L 27 7" stroke="#000000"/> 		<path id="_997F9E8B-2694-4ADD-A441-30844EBDB25Eframe3" oryx:anchors="top left" style="opacity:1;fill:none;stroke-width:2" d="M 13.5 11 L 26 11" stroke="#000000"/> 		<path id="_997F9E8B-2694-4ADD-A441-30844EBDB25Eframe4" oryx:anchors="top left" style="opacity:1;fill:none;stroke-width:1.5" d="M 14 14.5 L 25 14.5" stroke="#000000"/> 		<path id="_997F9E8B-2694-4ADD-A441-30844EBDB25Eframe5" oryx:anchors="top left" style="opacity:1;fill:none;stroke-width:1.5" d="M 8.2 3.1 L 15 3.1" stroke="#000000"/> 	</g> 	 	<g id="_997F9E8B-2694-4ADD-A441-30844EBDB25EbusinessRuleTask" transform="scale(0.7,0.7) translate(8,8)" display="none"> 		<rect id="_997F9E8B-2694-4ADD-A441-30844EBDB25Eframe6" oryx:anchors="top left" x="0" y="0" width="22" height="4" style="opacity:1;fill:#B3B1B3;fill-opacity:1;" stroke="#000000"/> 		<rect id="_997F9E8B-2694-4ADD-A441-30844EBDB25Eframe7" oryx:anchors="top left" x="0" y="4" style="opacity:1;fill:none;" width="22" height="12" stroke="#000000"/> 		<path id="_997F9E8B-2694-4ADD-A441-30844EBDB25Eframe8" oryx:anchors="top left" style="opacity:1;fill:none;" d="M 0 10 L 22 10" stroke="#000000"/> 		<path id="_997F9E8B-2694-4ADD-A441-30844EBDB25Eframe9" oryx:anchors="top left" style="opacity:1; fill:none;" d="M 7 4 L 7 16" stroke="#000000"/> 	</g> 	 	<g id="_997F9E8B-2694-4ADD-A441-30844EBDB25EscriptTask" transform="scale(0.7,0.7) translate(8,8)" display="none"> 		<path oryx:anchors="top left" id="_997F9E8B-2694-4ADD-A441-30844EBDB25Eframe10" style="opacity:1;fill:none;" stroke="#000000" d="M6.402,0.5h14.5c0,0-5.833,2.833-5.833,5.583s4.417,6,4.417,9.167    s-4.167,5.083-4.167,5.083H0.235c0,0,5-2.667,5-5s-4.583-6.75-4.583-9.25S6.402,0.5,6.402,0.5z"/> 		<path oryx:anchors="top left" id="_997F9E8B-2694-4ADD-A441-30844EBDB25Eframe11" style="opacity:1;fill:none;stroke-width:1.5" d="M 3.5 4.5 L 13.5 4.5" stroke="#000000"/> 		<path oryx:anchors="top left" id="_997F9E8B-2694-4ADD-A441-30844EBDB25Eframe12" style="opacity:1;fill:none;stroke-width:1.5" d="M 3.8 8.5 L 13.8 8.5" stroke="#000000"/> 		<path oryx:anchors="top left" id="_997F9E8B-2694-4ADD-A441-30844EBDB25Eframe13" style="opacity:1;fill:none;stroke-width:1.5" d="M 6.3 12.5 L 16.3 12.5" stroke="#000000"/> 		<path oryx:anchors="top left" id="_997F9E8B-2694-4ADD-A441-30844EBDB25Eframe14" style="opacity:1;fill:none;stroke-width:1.5" d="M 6.5 16.5 L 16.5 16.5" stroke="#000000"/> 	</g> 	 	<g id="_997F9E8B-2694-4ADD-A441-30844EBDB25EuserTask" transform="scale(0.7,0.7) translate(8,8)" display="inherit"> 		<path id="_997F9E8B-2694-4ADD-A441-30844EBDB25Eframe15" oryx:anchors="top left" style="opacity:1;fill:#F4F6F7" stroke="#000000" d="M0.585,24.167h24.083v-7.833c0,0-2.333-3.917-7.083-5.167h-9.25    c-4.417,1.333-7.833,5.75-7.833,5.75L0.585,24.167z"/> 		<path id="_997F9E8B-2694-4ADD-A441-30844EBDB25Eframe16" oryx:anchors="top left" style="opacity:1;fill:none" d="M 6 20 L 6 24" stroke="#000000"/> 		<path id="_997F9E8B-2694-4ADD-A441-30844EBDB25Eframe17" oryx:anchors="top left" style="opacity:1;fill:none" d="M 20 20 L 20 24" stroke="#000000"/> 		<circle id="_997F9E8B-2694-4ADD-A441-30844EBDB25Eframe18" oryx:anchors="top left" fill="black" cx="13.002" cy="5.916" r="5.417" stroke="#000000"/> 		<path id="_997F9E8B-2694-4ADD-A441-30844EBDB25Eframe19" oryx:anchors="top left" style="opacity:1;fill:#F0EFF0;" stroke="#000000" d="M8.043,7.083c0,0,2.814-2.426,5.376-1.807s4.624-0.693,4.624-0.693    c0.25,1.688,0.042,3.75-1.458,5.584c0,0,1.083,0.75,1.083,1.5s0.125,1.875-1,3s-5.5,1.25-6.75,0S8.668,12.834,8.668,12    s0.583-1.25,1.25-1.917C8.835,9.5,7.419,7.708,8.043,7.083z"/> 	</g> 	 	<g id="_997F9E8B-2694-4ADD-A441-30844EBDB25EserviceTask" transform="scale(0.7,0.7) translate(8,8)" display="none"> 		<polygon oryx:anchors="top left" id="_997F9E8B-2694-4ADD-A441-30844EBDB25Eframe20" style="opacity:1;fill:#ffffff" stroke="#000000" points="15.392,5.064 17.954,2.502 20.347,4.895 17.786,7.455     18.729,9.732 22.353,9.732 22.353,13.115 18.731,13.115 17.788,15.392 20.351,17.955 17.958,20.347 15.397,17.786 13.12,18.729     13.12,22.353 9.737,22.353 9.737,18.731 7.46,17.788 4.897,20.35 2.506,17.958 5.066,15.397 4.124,13.12 0.5,13.12 0.5,9.737     4.121,9.737 5.065,7.461 2.503,4.898 4.895,2.506 7.455,5.066 9.732,4.125 9.732,0.5 13.116,0.5 13.116,4.121 "/> 		<circle oryx:anchors="top left" id="_997F9E8B-2694-4ADD-A441-30844EBDB25Eframe21" style="opacity:1;fill:none" stroke="#000000" cx="11.427" cy="11.426" r="3.714"/> 		<polygon oryx:anchors="top left" id="_997F9E8B-2694-4ADD-A441-30844EBDB25Eframe22" style="opacity:1;fill:#ffffff" stroke="#000000" points="21.392,11.064 23.954,8.502 26.347,10.895 23.786,13.455     24.729,15.732 28.353,15.732 28.353,19.115 24.731,19.115 23.788,21.392 26.351,23.955 23.958,26.347 21.397,23.786 19.12,24.729     19.12,28.353 15.737,28.353 15.737,24.731 13.46,23.788 10.897,26.35 8.506,23.958 11.066,21.397 10.124,19.12 6.5,19.12     6.5,15.737 10.121,15.737 11.065,13.461 8.503,10.898 10.895,8.506 13.455,11.066 15.732,10.125 15.732,6.5 19.116,6.5     19.116,10.121 "/> 		<circle oryx:anchors="top left" id="_997F9E8B-2694-4ADD-A441-30844EBDB25Eframe23" style="opacity:1;fill:none;" stroke="#000000" cx="17.427" cy="17.426" r="3.714"/> 	</g> 	 	<g id="_997F9E8B-2694-4ADD-A441-30844EBDB25EsendTask" display="none"> 		<path id="_997F9E8B-2694-4ADD-A441-30844EBDB25Estframe24" oryx:anchors="left top" stroke="#FFFFFF" fill="black" stroke-width="1" d="M8,11 L8,21 L24,21 L24,11 L16,17z"/> 		<path id="_997F9E8B-2694-4ADD-A441-30844EBDB25Estframe25" oryx:anchors="left top" stroke="#FFFFFF" fill="black" stroke-width="1" d="M7,10 L16,17 L25 10z"/> 	</g> 	 	<g id="_997F9E8B-2694-4ADD-A441-30844EBDB25EreceiveTask" display="none"> 		<path id="_997F9E8B-2694-4ADD-A441-30844EBDB25Eframe26" oryx:anchors="left top" stroke="#000000" fill="none" stroke-width="1" d="M8,11 L8,21 L24,21 L24,11z M8,11 L16,17 L24,11"/> 	</g> 	 	<g id="_997F9E8B-2694-4ADD-A441-30844EBDB25Enone" display="none"/>  	<g id="_997F9E8B-2694-4ADD-A441-30844EBDB25Esequential" display="none">         <path oryx:anchors="bottom" fill="none" stroke="#000000" stroke-width="2" d="M46,76h10M46,72h10 M46,68h10" id="_997F9E8B-2694-4ADD-A441-30844EBDB25E__997F9E8B-2694-4ADD-A441-30844EBDB25E_20"/>     </g>   </g></g><g class="children" style="overflow:hidden"/><g class="edge"/></g><g class="controls"><g class="dockers"/><g class="magnets" transform="translate(195, 140)"><g pointer-events="all" display="none" transform="translate(-7, 12)"><circle cx="8" cy="8" r="4" stroke="none" fill="red" fill-opacity="0.3"/></g><g pointer-events="all" display="none" transform="translate(-7, 32)"><circle cx="8" cy="8" r="4" stroke="none" fill="red" fill-opacity="0.3"/></g><g pointer-events="all" display="none" transform="translate(-7, 52)"><circle cx="8" cy="8" r="4" stroke="none" fill="red" fill-opacity="0.3"/></g><g pointer-events="all" display="none" transform="translate(17, 71)"><circle cx="8" cy="8" r="4" stroke="none" fill="red" fill-opacity="0.3"/></g><g pointer-events="all" display="none" transform="translate(42, 71)"><circle cx="8" cy="8" r="4" stroke="none" fill="red" fill-opacity="0.3"/></g><g pointer-events="all" display="none" transform="translate(67, 71)"><circle cx="8" cy="8" r="4" stroke="none" fill="red" fill-opacity="0.3"/></g><g pointer-events="all" display="none" transform="translate(91, 12)"><circle cx="8" cy="8" r="4" stroke="none" fill="red" fill-opacity="0.3"/></g><g pointer-events="all" display="none" transform="translate(91, 32)"><circle cx="8" cy="8" r="4" stroke="none" fill="red" fill-opacity="0.3"/></g><g pointer-events="all" display="none" transform="translate(91, 52)"><circle cx="8" cy="8" r="4" stroke="none" fill="red" fill-opacity="0.3"/></g><g pointer-events="all" display="none" transform="translate(17, -7)"><circle cx="8" cy="8" r="4" stroke="none" fill="red" fill-opacity="0.3"/></g><g pointer-events="all" display="none" transform="translate(42, -7)"><circle cx="8" cy="8" r="4" stroke="none" fill="red" fill-opacity="0.3"/></g><g pointer-events="all" display="none" transform="translate(67, -7)"><circle cx="8" cy="8" r="4" stroke="none" fill="red" fill-opacity="0.3"/></g><g pointer-events="all" display="none" transform="translate(42, 32)"><circle cx="8" cy="8" r="4" stroke="none" fill="red" fill-opacity="0.3"/></g></g></g></g><g id="_452FE32F-521F-4408-8C34-AB763546308B" bpmn2nodeid="_D9C61D1F-EC1A-4A2B-8A5E-0BE6094EF58E"><g class="stencils" transform="translate(360, 140)"><g class="me"><g pointer-events="fill" oryx:minimumSize="50 40" id="_452FE32F-521F-4408-8C34-AB763546308B">   	<defs id="_452FE32F-521F-4408-8C34-AB763546308B__452FE32F-521F-4408-8C34-AB763546308B_17"> 		<radialGradient id="_452FE32F-521F-4408-8C34-AB763546308Bbackground" cx="10%" cy="10%" r="100%" fx="10%" fy="10%"> 			<stop offset="0%" stop-color="#ffffff" stop-opacity="1" id="_452FE32F-521F-4408-8C34-AB763546308B__452FE32F-521F-4408-8C34-AB763546308B_18"/> 			<stop id="_452FE32F-521F-4408-8C34-AB763546308Bfill_el" offset="100%" stop-color="#fafad2" stop-opacity="1"/> 		</radialGradient> 		<radialGradient id="_452FE32F-521F-4408-8C34-AB763546308Bborderbackground" cx="10%" cy="10%" r="100%" fx="10%" fy="10%"> 			<stop offset="0%" stop-color="#ffffff" stop-opacity="1" id="_452FE32F-521F-4408-8C34-AB763546308B__452FE32F-521F-4408-8C34-AB763546308B_19"/> 			<stop id="_452FE32F-521F-4408-8C34-AB763546308Bfill_border" offset="100%" stop-color="#000000" stop-opacity="1" stroke="#000000"/> 		</radialGradient> 	</defs> 	 	<rect id="_452FE32F-521F-4408-8C34-AB763546308Btext_frame" oryx:anchors="bottom top right left" x="1" y="1" width="94" height="79" rx="10" ry="10" stroke="none" stroke-width="0" fill="none"/> 	<rect id="_452FE32F-521F-4408-8C34-AB763546308Bbg_frame" oryx:resize="vertical horizontal" x="0" y="0" width="100" height="80" rx="10" ry="10" stroke="#000000" stroke-width="1" fill="url(#_452FE32F-521F-4408-8C34-AB763546308Bbackground) #ffffcc"/> 		<text font-size="12" id="_452FE32F-521F-4408-8C34-AB763546308Btext_name" x="50" y="40" oryx:align="middle center" oryx:fittoelem="text_frame" stroke="black" text-anchor="middle" stroke-width="0pt" letter-spacing="-0.01px" fill="#000000" transform="rotate(0 50 40)" visibility="inherit" oryx:fontSize="12"><tspan x="50" y="40" dy="-1" id="ext-gen924">TASK2_WITH_</tspan><tspan x="50" y="40" dy="11" id="ext-gen965">INPUT2</tspan></text>     <g id="_452FE32F-521F-4408-8C34-AB763546308BmanualTask" transform="scale(0.7,0.7) translate(8,8)" display="none">     	<path oryx:anchors="top left" id="_452FE32F-521F-4408-8C34-AB763546308Bframe" style="opacity:1;fill:none;fill-opacity:1;stroke-width:1" d="M0.5,3.751l4.083-3.25c0,0,11.166,0.083,12.083,0.083s-2.417,2.917-1.5,2.917     s11.667,0,12.584,0c1.166,1.708-0.168,3.167-0.834,3.667s0.875,1.917-1,4.417c-0.75,0.25,0.75,1.875-1.333,3.333     c-1.167,0.583,0.583,1.542-1.25,2.833c-1.167,0-20.833,0.083-20.833,0.083l-2-1.333V3.751z" stroke="#000000"/> 		<path id="_452FE32F-521F-4408-8C34-AB763546308Bframe2" oryx:anchors="top left" style="opacity:1;fill:none;stroke-width:2" d="M 13.5 7 L 27 7" stroke="#000000"/> 		<path id="_452FE32F-521F-4408-8C34-AB763546308Bframe3" oryx:anchors="top left" style="opacity:1;fill:none;stroke-width:2" d="M 13.5 11 L 26 11" stroke="#000000"/> 		<path id="_452FE32F-521F-4408-8C34-AB763546308Bframe4" oryx:anchors="top left" style="opacity:1;fill:none;stroke-width:1.5" d="M 14 14.5 L 25 14.5" stroke="#000000"/> 		<path id="_452FE32F-521F-4408-8C34-AB763546308Bframe5" oryx:anchors="top left" style="opacity:1;fill:none;stroke-width:1.5" d="M 8.2 3.1 L 15 3.1" stroke="#000000"/> 	</g> 	 	<g id="_452FE32F-521F-4408-8C34-AB763546308BbusinessRuleTask" transform="scale(0.7,0.7) translate(8,8)" display="none"> 		<rect id="_452FE32F-521F-4408-8C34-AB763546308Bframe6" oryx:anchors="top left" x="0" y="0" width="22" height="4" style="opacity:1;fill:#B3B1B3;fill-opacity:1;" stroke="#000000"/> 		<rect id="_452FE32F-521F-4408-8C34-AB763546308Bframe7" oryx:anchors="top left" x="0" y="4" style="opacity:1;fill:none;" width="22" height="12" stroke="#000000"/> 		<path id="_452FE32F-521F-4408-8C34-AB763546308Bframe8" oryx:anchors="top left" style="opacity:1;fill:none;" d="M 0 10 L 22 10" stroke="#000000"/> 		<path id="_452FE32F-521F-4408-8C34-AB763546308Bframe9" oryx:anchors="top left" style="opacity:1; fill:none;" d="M 7 4 L 7 16" stroke="#000000"/> 	</g> 	 	<g id="_452FE32F-521F-4408-8C34-AB763546308BscriptTask" transform="scale(0.7,0.7) translate(8,8)" display="none"> 		<path oryx:anchors="top left" id="_452FE32F-521F-4408-8C34-AB763546308Bframe10" style="opacity:1;fill:none;" stroke="#000000" d="M6.402,0.5h14.5c0,0-5.833,2.833-5.833,5.583s4.417,6,4.417,9.167    s-4.167,5.083-4.167,5.083H0.235c0,0,5-2.667,5-5s-4.583-6.75-4.583-9.25S6.402,0.5,6.402,0.5z"/> 		<path oryx:anchors="top left" id="_452FE32F-521F-4408-8C34-AB763546308Bframe11" style="opacity:1;fill:none;stroke-width:1.5" d="M 3.5 4.5 L 13.5 4.5" stroke="#000000"/> 		<path oryx:anchors="top left" id="_452FE32F-521F-4408-8C34-AB763546308Bframe12" style="opacity:1;fill:none;stroke-width:1.5" d="M 3.8 8.5 L 13.8 8.5" stroke="#000000"/> 		<path oryx:anchors="top left" id="_452FE32F-521F-4408-8C34-AB763546308Bframe13" style="opacity:1;fill:none;stroke-width:1.5" d="M 6.3 12.5 L 16.3 12.5" stroke="#000000"/> 		<path oryx:anchors="top left" id="_452FE32F-521F-4408-8C34-AB763546308Bframe14" style="opacity:1;fill:none;stroke-width:1.5" d="M 6.5 16.5 L 16.5 16.5" stroke="#000000"/> 	</g> 	 	<g id="_452FE32F-521F-4408-8C34-AB763546308BuserTask" transform="scale(0.7,0.7) translate(8,8)" display="inherit"> 		<path id="_452FE32F-521F-4408-8C34-AB763546308Bframe15" oryx:anchors="top left" style="opacity:1;fill:#F4F6F7" stroke="#000000" d="M0.585,24.167h24.083v-7.833c0,0-2.333-3.917-7.083-5.167h-9.25    c-4.417,1.333-7.833,5.75-7.833,5.75L0.585,24.167z"/> 		<path id="_452FE32F-521F-4408-8C34-AB763546308Bframe16" oryx:anchors="top left" style="opacity:1;fill:none" d="M 6 20 L 6 24" stroke="#000000"/> 		<path id="_452FE32F-521F-4408-8C34-AB763546308Bframe17" oryx:anchors="top left" style="opacity:1;fill:none" d="M 20 20 L 20 24" stroke="#000000"/> 		<circle id="_452FE32F-521F-4408-8C34-AB763546308Bframe18" oryx:anchors="top left" fill="black" cx="13.002" cy="5.916" r="5.417" stroke="#000000"/> 		<path id="_452FE32F-521F-4408-8C34-AB763546308Bframe19" oryx:anchors="top left" style="opacity:1;fill:#F0EFF0;" stroke="#000000" d="M8.043,7.083c0,0,2.814-2.426,5.376-1.807s4.624-0.693,4.624-0.693    c0.25,1.688,0.042,3.75-1.458,5.584c0,0,1.083,0.75,1.083,1.5s0.125,1.875-1,3s-5.5,1.25-6.75,0S8.668,12.834,8.668,12    s0.583-1.25,1.25-1.917C8.835,9.5,7.419,7.708,8.043,7.083z"/> 	</g> 	 	<g id="_452FE32F-521F-4408-8C34-AB763546308BserviceTask" transform="scale(0.7,0.7) translate(8,8)" display="none"> 		<polygon oryx:anchors="top left" id="_452FE32F-521F-4408-8C34-AB763546308Bframe20" style="opacity:1;fill:#ffffff" stroke="#000000" points="15.392,5.064 17.954,2.502 20.347,4.895 17.786,7.455     18.729,9.732 22.353,9.732 22.353,13.115 18.731,13.115 17.788,15.392 20.351,17.955 17.958,20.347 15.397,17.786 13.12,18.729     13.12,22.353 9.737,22.353 9.737,18.731 7.46,17.788 4.897,20.35 2.506,17.958 5.066,15.397 4.124,13.12 0.5,13.12 0.5,9.737     4.121,9.737 5.065,7.461 2.503,4.898 4.895,2.506 7.455,5.066 9.732,4.125 9.732,0.5 13.116,0.5 13.116,4.121 "/> 		<circle oryx:anchors="top left" id="_452FE32F-521F-4408-8C34-AB763546308Bframe21" style="opacity:1;fill:none" stroke="#000000" cx="11.427" cy="11.426" r="3.714"/> 		<polygon oryx:anchors="top left" id="_452FE32F-521F-4408-8C34-AB763546308Bframe22" style="opacity:1;fill:#ffffff" stroke="#000000" points="21.392,11.064 23.954,8.502 26.347,10.895 23.786,13.455     24.729,15.732 28.353,15.732 28.353,19.115 24.731,19.115 23.788,21.392 26.351,23.955 23.958,26.347 21.397,23.786 19.12,24.729     19.12,28.353 15.737,28.353 15.737,24.731 13.46,23.788 10.897,26.35 8.506,23.958 11.066,21.397 10.124,19.12 6.5,19.12     6.5,15.737 10.121,15.737 11.065,13.461 8.503,10.898 10.895,8.506 13.455,11.066 15.732,10.125 15.732,6.5 19.116,6.5     19.116,10.121 "/> 		<circle oryx:anchors="top left" id="_452FE32F-521F-4408-8C34-AB763546308Bframe23" style="opacity:1;fill:none;" stroke="#000000" cx="17.427" cy="17.426" r="3.714"/> 	</g> 	 	<g id="_452FE32F-521F-4408-8C34-AB763546308BsendTask" display="none"> 		<path id="_452FE32F-521F-4408-8C34-AB763546308Bstframe24" oryx:anchors="left top" stroke="#FFFFFF" fill="black" stroke-width="1" d="M8,11 L8,21 L24,21 L24,11 L16,17z"/> 		<path id="_452FE32F-521F-4408-8C34-AB763546308Bstframe25" oryx:anchors="left top" stroke="#FFFFFF" fill="black" stroke-width="1" d="M7,10 L16,17 L25 10z"/> 	</g> 	 	<g id="_452FE32F-521F-4408-8C34-AB763546308BreceiveTask" display="none"> 		<path id="_452FE32F-521F-4408-8C34-AB763546308Bframe26" oryx:anchors="left top" stroke="#000000" fill="none" stroke-width="1" d="M8,11 L8,21 L24,21 L24,11z M8,11 L16,17 L24,11"/> 	</g> 	 	<g id="_452FE32F-521F-4408-8C34-AB763546308Bnone" display="none"/>  	<g id="_452FE32F-521F-4408-8C34-AB763546308Bsequential" display="none">         <path oryx:anchors="bottom" fill="none" stroke="#000000" stroke-width="2" d="M46,76h10M46,72h10 M46,68h10" id="_452FE32F-521F-4408-8C34-AB763546308B__452FE32F-521F-4408-8C34-AB763546308B_20"/>     </g>   </g></g><g class="children" style="overflow:hidden"/><g class="edge"/></g><g class="controls"><g class="dockers"/><g class="magnets" transform="translate(360, 140)"><g pointer-events="all" display="none" transform="translate(-7, 12)"><circle cx="8" cy="8" r="4" stroke="none" fill="red" fill-opacity="0.3"/></g><g pointer-events="all" display="none" transform="translate(-7, 32)"><circle cx="8" cy="8" r="4" stroke="none" fill="red" fill-opacity="0.3"/></g><g pointer-events="all" display="none" transform="translate(-7, 52)"><circle cx="8" cy="8" r="4" stroke="none" fill="red" fill-opacity="0.3"/></g><g pointer-events="all" display="none" transform="translate(17, 71)"><circle cx="8" cy="8" r="4" stroke="none" fill="red" fill-opacity="0.3"/></g><g pointer-events="all" display="none" transform="translate(42, 71)"><circle cx="8" cy="8" r="4" stroke="none" fill="red" fill-opacity="0.3"/></g><g pointer-events="all" display="none" transform="translate(67, 71)"><circle cx="8" cy="8" r="4" stroke="none" fill="red" fill-opacity="0.3"/></g><g pointer-events="all" display="none" transform="translate(91, 12)"><circle cx="8" cy="8" r="4" stroke="none" fill="red" fill-opacity="0.3"/></g><g pointer-events="all" display="none" transform="translate(91, 32)"><circle cx="8" cy="8" r="4" stroke="none" fill="red" fill-opacity="0.3"/></g><g pointer-events="all" display="none" transform="translate(91, 52)"><circle cx="8" cy="8" r="4" stroke="none" fill="red" fill-opacity="0.3"/></g><g pointer-events="all" display="none" transform="translate(17, -7)"><circle cx="8" cy="8" r="4" stroke="none" fill="red" fill-opacity="0.3"/></g><g pointer-events="all" display="none" transform="translate(42, -7)"><circle cx="8" cy="8" r="4" stroke="none" fill="red" fill-opacity="0.3"/></g><g pointer-events="all" display="none" transform="translate(67, -7)"><circle cx="8" cy="8" r="4" stroke="none" fill="red" fill-opacity="0.3"/></g><g pointer-events="all" display="none" transform="translate(42, 32)"><circle cx="8" cy="8" r="4" stroke="none" fill="red" fill-opacity="0.3"/></g></g></g></g><g id="_9880B10A-14D9-4663-A5F2-A4303E708748" bpmn2nodeid="_51845C65-32E4-48E8-8E0C-C4EE0B836F7A"><g class="stencils" transform="translate(505, 166)"><g class="me"><g pointer-events="fill" id="_9880B10A-14D9-4663-A5F2-A4303E708748">      <defs id="_9880B10A-14D9-4663-A5F2-A4303E708748__9880B10A-14D9-4663-A5F2-A4303E708748_5"> 		<radialGradient id="_9880B10A-14D9-4663-A5F2-A4303E708748background" cx="10%" cy="10%" r="100%" fx="10%" fy="10%"> 			<stop offset="0%" stop-color="#ffffff" stop-opacity="1" id="_9880B10A-14D9-4663-A5F2-A4303E708748__9880B10A-14D9-4663-A5F2-A4303E708748_6"/> 			<stop id="_9880B10A-14D9-4663-A5F2-A4303E708748fill_el" offset="100%" stop-color="#ff6347" stop-opacity="1"/> 		</radialGradient> 	</defs> 	     <circle id="_9880B10A-14D9-4663-A5F2-A4303E708748bg_frame" cx="14" cy="14" r="14" stroke="#000000" fill="url(#_9880B10A-14D9-4663-A5F2-A4303E708748background) white" stroke-width="3"/> 	<text font-size="11" id="_9880B10A-14D9-4663-A5F2-A4303E708748text_name" x="14" y="30" oryx:align="top center" stroke="black" stroke-width="0pt" letter-spacing="-0.01px" fill="#000000" text-anchor="middle" transform="rotate(0 14 30)" visibility="inherit" oryx:fontSize="11"/>   </g></g><g class="children" style="overflow:hidden"/><g class="edge"/></g><g class="controls"><g class="dockers"/><g class="magnets" transform="translate(505, 166)"><g pointer-events="all" display="none" transform="translate(6, 6)"><circle cx="8" cy="8" r="4" stroke="none" fill="red" fill-opacity="0.3"/></g></g></g></g><g id="_1BA9790B-A069-48EA-8992-D79C96335CA5" bpmn2nodeid="_63ED79C1-5D5A-4FED-A797-20917B29DE42"><g class="stencils" transform="translate(201, 304.5)"><g class="me"><g pointer-events="fill" id="_1BA9790B-A069-48EA-8992-D79C96335CA5"> 	    <defs id="_1BA9790B-A069-48EA-8992-D79C96335CA5__1BA9790B-A069-48EA-8992-D79C96335CA5_9"> 			<radialGradient id="_1BA9790B-A069-48EA-8992-D79C96335CA5background" cx="1%" cy="1%" r="1%" fx="1%" fy="1%"> 				<stop offset="0%" stop-color="#ffffff" stop-opacity="1" id="_1BA9790B-A069-48EA-8992-D79C96335CA5__1BA9790B-A069-48EA-8992-D79C96335CA5_10"/> 				<stop id="_1BA9790B-A069-48EA-8992-D79C96335CA5fill_el" offset="100%" stop-color="#C0C0C0" stop-opacity="1"/> 			</radialGradient> 		</defs> 		 		<polyline id="_1BA9790B-A069-48EA-8992-D79C96335CA5frame" oryx:resize="vertical horizontal" oryx:anchors="left right" stroke="#000000" fill="url(#_1BA9790B-A069-48EA-8992-D79C96335CA5background)" stroke-width="1" points="78,97 0,97 0,0 78,0"/> 		 		<polyline id="_1BA9790B-A069-48EA-8992-D79C96335CA5frame2" oryx:anchors="right top bottom" stroke="#000000" fill="url(#_1BA9790B-A069-48EA-8992-D79C96335CA5background)" stroke-width="1" points="78,97 88,97 88,10 78,10"/> 		 		<polyline id="_1BA9790B-A069-48EA-8992-D79C96335CA5frame3" oryx:anchors="right top" stroke="#000000" fill="url(#_1BA9790B-A069-48EA-8992-D79C96335CA5background)" stroke-width="1" points="88,10 78,0 78,10 88,10"/> 		 		<rect id="_1BA9790B-A069-48EA-8992-D79C96335CA5unvisibleBorder" x="0" y="0" height="97" width="88" stroke="none" fill="none" oryx:resize="horizontal vertical"/> 		 		<text font-size="12" id="_1BA9790B-A069-48EA-8992-D79C96335CA5text_name" x="44" y="48.5" oryx:align="middle center" oryx:fittoelem="unvisibleBorder" stroke="black" stroke-width="0pt" letter-spacing="-0.01px" fill="#000000" text-anchor="middle" transform="rotate(0 44 48.5)" visibility="inherit" oryx:fontSize="12"><tspan x="44" y="48.5" dy="-1" id="ext-gen1108">DATA_OBJEC</tspan><tspan x="44" y="48.5" dy="11" id="ext-gen1112">T_1</tspan></text> 		 		<text font-size="11" id="_1BA9790B-A069-48EA-8992-D79C96335CA5text_state" x="44" y="80" oryx:align="middle center" stroke="black" oryx:anchors="bottom" stroke-width="0pt" letter-spacing="-0.01px" text-anchor="middle" transform="rotate(0 44 80)" visibility="inherit" oryx:fontSize="11"/> 		 		<polygon oryx:anchors="left top" id="_1BA9790B-A069-48EA-8992-D79C96335CA5input" stroke="black" fill="white" stroke-width="1.4" points="9,13 19,13 19,10 25,16 19,22 19,19 9,19" stroke-linecap="butt" stroke-linejoin="miter" stroke-miterlimit="10" display="none"/> 		 		<polygon oryx:anchors="left top" id="_1BA9790B-A069-48EA-8992-D79C96335CA5output" stroke="black" fill="black" stroke-width="1" points="9,13 19,13 19,10 25,16 19,22 19,19 9,19" stroke-linecap="butt" stroke-linejoin="miter" stroke-miterlimit="10" display="none"/> 		 		undefined 	</g></g><g class="children" style="overflow:hidden"/><g class="edge"/></g><g class="controls"><g class="dockers"/><g class="magnets" transform="translate(201, 304.5)"><g pointer-events="all" display="none" transform="translate(-8, 40.5)"><circle cx="8" cy="8" r="4" stroke="none" fill="red" fill-opacity="0.3"/></g><g pointer-events="all" display="none" transform="translate(36, 89)"><circle cx="8" cy="8" r="4" stroke="none" fill="red" fill-opacity="0.3"/></g><g pointer-events="all" display="none" transform="translate(80, 40.5)"><circle cx="8" cy="8" r="4" stroke="none" fill="red" fill-opacity="0.3"/></g><g pointer-events="all" display="none" transform="translate(36, -8)"><circle cx="8" cy="8" r="4" stroke="none" fill="red" fill-opacity="0.3"/></g><g pointer-events="all" display="none" transform="translate(36, 40.5)"><circle cx="8" cy="8" r="4" stroke="none" fill="red" fill-opacity="0.3"/></g></g></g></g></g><g class="edge"><g id="_F0A85C59-6FB4-43A9-BE19-4C5844ED92A0" bpmn2nodeid="_AC65BEAC-B51D-4A38-83F6-D9448B2DFEE1"><g class="stencils"><g class="me"><g pointer-events="painted" bpmn2nodeid="_AC65BEAC-B51D-4A38-83F6-D9448B2DFEE1"><path id="_F0A85C59-6FB4-43A9-BE19-4C5844ED92A0_1" d="M150.609375 180L194.15625 180 " stroke="#000000" fill="none" stroke-width="2" stroke-linecap="round" stroke-linejoin="round" marker-start="url(#_F0A85C59-6FB4-43A9-BE19-4C5844ED92A0start)" marker-end="url(#_F0A85C59-6FB4-43A9-BE19-4C5844ED92A0end)"/></g><text id="_F0A85C59-6FB4-43A9-BE19-4C5844ED92A0text_name" font-size="12" x="164.609375" y="166" oryx:edgePosition="startTop" stroke-width="0pt" letter-spacing="-0.01px" fill="#000000" text-anchor="start" transform="rotate(360 150.609375 180)" visibility="inherit" oryx:fontSize="12"/></g><g class="children" style="overflow:hidden"/><g class="edge"/></g><g class="controls"><g class="dockers"/><g class="magnets"/></g></g><g id="_BC542B0C-B858-4AE9-BF5E-3928FFE88D6F" bpmn2nodeid="_64A857AF-EF57-4B6A-AA55-58E0ECC721B4"><g class="stencils"><g class="me"><g pointer-events="painted" bpmn2nodeid="_64A857AF-EF57-4B6A-AA55-58E0ECC721B4"><path id="_BC542B0C-B858-4AE9-BF5E-3928FFE88D6F_1" d="M295.62890625 180L359.37109375 180 " stroke="#000000" fill="none" stroke-width="2" stroke-linecap="round" stroke-linejoin="round" marker-start="url(#_BC542B0C-B858-4AE9-BF5E-3928FFE88D6Fstart)" marker-end="url(#_BC542B0C-B858-4AE9-BF5E-3928FFE88D6Fend)"/></g><text id="_BC542B0C-B858-4AE9-BF5E-3928FFE88D6Ftext_name" font-size="12" x="309.62890625" y="166" oryx:edgePosition="startTop" stroke-width="0pt" letter-spacing="-0.01px" fill="#000000" text-anchor="start" transform="rotate(360 295.62890625 180)" visibility="inherit" oryx:fontSize="12"/></g><g class="children" style="overflow:hidden"/><g class="edge"/></g><g class="controls"><g class="dockers"/><g class="magnets"/></g></g><g id="_753EE17C-E8A1-44EF-81DB-49361E05B372" bpmn2nodeid="_E681F70E-5A6C-4431-9EB0-FD943A57C5B3"><g class="stencils"><g class="me"><g pointer-events="painted" bpmn2nodeid="_E681F70E-5A6C-4431-9EB0-FD943A57C5B3"><path id="_753EE17C-E8A1-44EF-81DB-49361E05B372_1" d="M460.390625 180L504.375 180 " stroke="#000000" fill="none" stroke-width="2" stroke-linecap="round" stroke-linejoin="round" marker-start="url(#_753EE17C-E8A1-44EF-81DB-49361E05B372start)" marker-end="url(#_753EE17C-E8A1-44EF-81DB-49361E05B372end)"/></g><text id="_753EE17C-E8A1-44EF-81DB-49361E05B372text_name" font-size="12" x="474.390625" y="166" oryx:edgePosition="startTop" stroke-width="0pt" letter-spacing="-0.01px" fill="#000000" text-anchor="start" transform="rotate(360 460.390625 180)" visibility="inherit" oryx:fontSize="12"/></g><g class="children" style="overflow:hidden"/><g class="edge"/></g><g class="controls"><g class="dockers"/><g class="magnets"/></g></g><g id="_483D12AC-F5E4-41AC-B126-BE2C81F464B7" bpmn2nodeid="_B9AEFA7B-537E-4503-A6F2-B18EBF44B197"><g class="stencils"><g class="me"><g pointer-events="painted" bpmn2nodeid="_B9AEFA7B-537E-4503-A6F2-B18EBF44B197"><path id="_483D12AC-F5E4-41AC-B126-BE2C81F464B7_1" d="M245 304.01953125L245 220.1953125 " stroke="#000000" fill="none" stroke-width="2" stroke-dasharray="3, 4" marker-end="url(#_483D12AC-F5E4-41AC-B126-BE2C81F464B7end)"/></g><text id="_483D12AC-F5E4-41AC-B126-BE2C81F464B7text_name" x="245" y="256.107421875" oryx:edgePosition="midTop" oryx:offsetTop="6" style="font-size:9px;" stroke-width="0pt" letter-spacing="-0.01px" text-anchor="middle" transform="rotate(270 245 262.107421875)" visibility="inherit" oryx:fontSize="12"/></g><g class="children" style="overflow:hidden"/><g class="edge"/></g><g class="controls"><g class="dockers"/><g class="magnets"/></g></g><g id="_6E4A70A2-4777-4E93-9C2A-D9BF2B7B6FB6" bpmn2nodeid="_CA80415D-DA2E-48A6-9DFA-08C2259B46BC"><g class="stencils"><g class="me"><g pointer-events="painted" bpmn2nodeid="_CA80415D-DA2E-48A6-9DFA-08C2259B46BC"><path id="_6E4A70A2-4777-4E93-9C2A-D9BF2B7B6FB6_1" d="M289.828125 353L410 353 L410 220.1953125 " stroke="#000000" fill="none" stroke-width="2" stroke-dasharray="3, 4" marker-end="url(#_6E4A70A2-4777-4E93-9C2A-D9BF2B7B6FB6end)"/></g><text id="_6E4A70A2-4777-4E93-9C2A-D9BF2B7B6FB6text_name" x="416" y="347" oryx:edgePosition="midTop" oryx:offsetTop="6" style="font-size:9px;" stroke-width="0pt" letter-spacing="-0.01px" text-anchor="start" transform="rotate(270 410 353)" visibility="inherit" oryx:fontSize="12"/></g><g class="children" style="overflow:hidden"/><g class="edge"/></g><g class="controls"><g class="dockers"/><g class="magnets"/></g></g></g><text id="_B1C93F29-EEB9-4CB0-BFC6-02A54DAEB3BD" style="stroke-width:1;fill:rgb(177,194,214);font-family:arial;font-weight:bold" font-size="12" onclick="ORYX.Plugins.CanvasTitle.openTextualAnalysis()" onmouseover="ORYX.Plugins.CanvasTitle.addToolTip('_B1C93F29-EEB9-4CB0-BFC6-02A54DAEB3BD')" transform="translate(10, 20)">TestInputDataObject2 v.1.0 (com.myspace.testdataobjects.TestInputDataObject2)</text></g></g></svg>