<svg xmlns="http://www.w3.org/2000/svg" xmlns:oryx="http://oryx-editor.org" id="_F9D9FF7F-0B60-47E1-B37D-D854EFCCE485" width="637.71875" height="424.5" xmlns:xlink="http://www.w3.org/1999/xlink" xmlns:svg="http://www.w3.org/2000/svg"><defs><marker id="_8C3B1824-A4E9-4B28-AB01-DDE5574336B1start" refX="1" refY="5" markerUnits="userSpaceOnUse" markerWidth="17" markerHeight="11" orient="auto" fill="#000000" stroke="#000000"> 	  		<path id="_8C3B1824-A4E9-4B28-AB01-DDE5574336B1conditional" d="M 0 5 L 8 0 L 16 5 L 8 10 L 0 5" fill="white" stroke="#000000" stroke-width="1" display="none"/> 			<path id="_8C3B1824-A4E9-4B28-AB01-DDE5574336B1default" d="M 5 0 L 11 10" fill="white" stroke="#000000" stroke-width="1" display="none"/> 	  	</marker><marker id="_8C3B1824-A4E9-4B28-AB01-DDE5574336B1end" refX="15" refY="6" markerUnits="userSpaceOnUse" markerWidth="15" markerHeight="12" orient="auto" fill="#000000" stroke="#000000"> 	  		<path id="_8C3B1824-A4E9-4B28-AB01-DDE5574336B1frame2" d="M 0 1 L 15 6 L 0 11z" fill="#000000" stroke="#000000" stroke-linejoin="round" stroke-width="2"/> 	  	</marker><marker id="_161E1E34-0C71-4015-B195-E13F73AB5EDFstart" refX="1" refY="5" markerUnits="userSpaceOnUse" markerWidth="17" markerHeight="11" orient="auto" fill="#000000" stroke="#000000"> 	  		<path id="_161E1E34-0C71-4015-B195-E13F73AB5EDFconditional" d="M 0 5 L 8 0 L 16 5 L 8 10 L 0 5" fill="white" stroke="#000000" stroke-width="1" display="none"/> 			<path id="_161E1E34-0C71-4015-B195-E13F73AB5EDFdefault" d="M 5 0 L 11 10" fill="white" stroke="#000000" stroke-width="1" display="none"/> 	  	</marker><marker id="_161E1E34-0C71-4015-B195-E13F73AB5EDFend" refX="15" refY="6" markerUnits="userSpaceOnUse" markerWidth="15" markerHeight="12" orient="auto" fill="#000000" stroke="#000000"> 	  		<path id="_161E1E34-0C71-4015-B195-E13F73AB5EDFframe2" d="M 0 1 L 15 6 L 0 11z" fill="#000000" stroke="#000000" stroke-linejoin="round" stroke-width="2"/> 	  	</marker><marker id="_460A79B2-7A60-49CB-89B4-8FBA5D06B9CDstart" refX="1" refY="5" markerUnits="userSpaceOnUse" markerWidth="17" markerHeight="11" orient="auto" fill="#000000" stroke="#000000"> 	  		<path id="_460A79B2-7A60-49CB-89B4-8FBA5D06B9CDconditional" d="M 0 5 L 8 0 L 16 5 L 8 10 L 0 5" fill="white" stroke="#000000" stroke-width="1" display="none"/> 			<path id="_460A79B2-7A60-49CB-89B4-8FBA5D06B9CDdefault" d="M 5 0 L 11 10" fill="white" stroke="#000000" stroke-width="1" display="none"/> 	  	</marker><marker id="_460A79B2-7A60-49CB-89B4-8FBA5D06B9CDend" refX="15" refY="6" markerUnits="userSpaceOnUse" markerWidth="15" markerHeight="12" orient="auto" fill="#000000" stroke="#000000"> 	  		<path id="_460A79B2-7A60-49CB-89B4-8FBA5D06B9CDframe2" d="M 0 1 L 15 6 L 0 11z" fill="#000000" stroke="#000000" stroke-linejoin="round" stroke-width="2"/> 	  	</marker><marker id="_74D014EF-441C-4A3A-BB76-53E58AB7EFACend" refX="10" refY="5" markerUnits="userSpaceOnUse" markerWidth="10" markerHeight="10" orient="auto" stroke="#000000"> 	  		<path id="_74D014EF-441C-4A3A-BB76-53E58AB7EFACframe2" d="M 0 0 L 10 5 L 0 10" fill="none" stroke="#000000"/> 	  	</marker><marker id="_54309E8D-3B13-483E-BBB6-46296B993052end" refX="10" refY="5" markerUnits="userSpaceOnUse" markerWidth="10" markerHeight="10" orient="auto" stroke="#000000"> 	  		<path id="_54309E8D-3B13-483E-BBB6-46296B993052frame2" d="M 0 0 L 10 5 L 0 10" fill="none" stroke="#000000"/> 	  	</marker></defs><g stroke="none" font-family="Verdana, sans-serif" font-size-adjust="none" font-style="normal" font-variant="normal" font-weight="normal" line-heigth="normal" font-size="12"><g class="stencils" transform="translate(16, 16)"><g class="me"/><g class="children"><g id="_E1225D51-10EF-4003-BDD2-F5DCAFC2D232" bpmn2nodeid="processStartEvent"><g class="stencils" transform="translate(120, 165)"><g class="me"><g pointer-events="fill" id="_E1225D51-10EF-4003-BDD2-F5DCAFC2D232">        <defs id="_E1225D51-10EF-4003-BDD2-F5DCAFC2D232__E1225D51-10EF-4003-BDD2-F5DCAFC2D232_5"> 		<radialGradient id="_E1225D51-10EF-4003-BDD2-F5DCAFC2D232background" cx="10%" cy="10%" r="100%" fx="10%" fy="10%"> 			<stop offset="0%" stop-color="#ffffff" stop-opacity="1" id="_E1225D51-10EF-4003-BDD2-F5DCAFC2D232__E1225D51-10EF-4003-BDD2-F5DCAFC2D232_6"/> 			<stop id="_E1225D51-10EF-4003-BDD2-F5DCAFC2D232fill_el" offset="100%" stop-color="#9acd32" stop-opacity="1"/> 		</radialGradient> 	</defs> 	     <circle id="_E1225D51-10EF-4003-BDD2-F5DCAFC2D232bg_frame" cx="15" cy="15" r="15" stroke="#000000" fill="url(#_E1225D51-10EF-4003-BDD2-F5DCAFC2D232background) white" stroke-width="1" style="stroke-dasharray: 5.5, 3"/>      <circle id="_E1225D51-10EF-4003-BDD2-F5DCAFC2D232frame" cx="15" cy="15" r="15" stroke="#000000" fill="none" stroke-width="1" display="inherit"/>  	<text font-size="11" id="_E1225D51-10EF-4003-BDD2-F5DCAFC2D232text_name" x="15" y="32" oryx:align="top center" stroke="black" stroke-width="0pt" letter-spacing="-0.01px" fill="#000000" text-anchor="middle" transform="rotate(0 15 32)" visibility="inherit" oryx:fontSize="11"/>   </g></g><g class="children" style="overflow:hidden"/><g class="edge"/></g><g class="controls"><g class="dockers"/><g class="magnets" transform="translate(120, 165)"><g pointer-events="all" display="none" transform="translate(7, 7)"><circle cx="8" cy="8" r="4" stroke="none" fill="red" fill-opacity="0.3"/></g></g></g></g><g id="_686AE2FB-2F39-4929-A9C8-71981DCB28EA" bpmn2nodeid="_29760129-7CA3-44CF-9C7D-E41BE1477AF9"><g class="stencils" transform="translate(195, 140)"><g class="me"><g pointer-events="fill" oryx:minimumSize="50 40" id="_686AE2FB-2F39-4929-A9C8-71981DCB28EA">   	<defs id="_686AE2FB-2F39-4929-A9C8-71981DCB28EA__686AE2FB-2F39-4929-A9C8-71981DCB28EA_17"> 		<radialGradient id="_686AE2FB-2F39-4929-A9C8-71981DCB28EAbackground" cx="10%" cy="10%" r="100%" fx="10%" fy="10%"> 			<stop offset="0%" stop-color="#ffffff" stop-opacity="1" id="_686AE2FB-2F39-4929-A9C8-71981DCB28EA__686AE2FB-2F39-4929-A9C8-71981DCB28EA_18"/> 			<stop id="_686AE2FB-2F39-4929-A9C8-71981DCB28EAfill_el" offset="100%" stop-color="#fafad2" stop-opacity="1"/> 		</radialGradient> 		<radialGradient id="_686AE2FB-2F39-4929-A9C8-71981DCB28EAborderbackground" cx="10%" cy="10%" r="100%" fx="10%" fy="10%"> 			<stop offset="0%" stop-color="#ffffff" stop-opacity="1" id="_686AE2FB-2F39-4929-A9C8-71981DCB28EA__686AE2FB-2F39-4929-A9C8-71981DCB28EA_19"/> 			<stop id="_686AE2FB-2F39-4929-A9C8-71981DCB28EAfill_border" offset="100%" stop-color="#000000" stop-opacity="1" stroke="#000000"/> 		</radialGradient> 	</defs> 	 	<rect id="_686AE2FB-2F39-4929-A9C8-71981DCB28EAtext_frame" oryx:anchors="bottom top right left" x="1" y="1" width="94" height="79" rx="10" ry="10" stroke="none" stroke-width="0" fill="none"/> 	<rect id="_686AE2FB-2F39-4929-A9C8-71981DCB28EAbg_frame" oryx:resize="vertical horizontal" x="0" y="0" width="100" height="80" rx="10" ry="10" stroke="#000000" stroke-width="1" fill="url(#_686AE2FB-2F39-4929-A9C8-71981DCB28EAbackground) #ffffcc"/> 		<text font-size="12" id="_686AE2FB-2F39-4929-A9C8-71981DCB28EAtext_name" x="50" y="40" oryx:align="middle center" oryx:fittoelem="text_frame" stroke="black" text-anchor="middle" stroke-width="0pt" letter-spacing="-0.01px" fill="#000000" transform="rotate(0 50 40)" visibility="inherit" oryx:fontSize="12"><tspan x="50" y="40" dy="5" id="ext-gen1243">Script1</tspan></text>     <g id="_686AE2FB-2F39-4929-A9C8-71981DCB28EAmanualTask" transform="scale(0.7,0.7) translate(8,8)" display="none">     	<path oryx:anchors="top left" id="_686AE2FB-2F39-4929-A9C8-71981DCB28EAframe" style="opacity:1;fill:none;fill-opacity:1;stroke-width:1" d="M0.5,3.751l4.083-3.25c0,0,11.166,0.083,12.083,0.083s-2.417,2.917-1.5,2.917     s11.667,0,12.584,0c1.166,1.708-0.168,3.167-0.834,3.667s0.875,1.917-1,4.417c-0.75,0.25,0.75,1.875-1.333,3.333     c-1.167,0.583,0.583,1.542-1.25,2.833c-1.167,0-20.833,0.083-20.833,0.083l-2-1.333V3.751z" stroke="#000000"/> 		<path id="_686AE2FB-2F39-4929-A9C8-71981DCB28EAframe2" oryx:anchors="top left" style="opacity:1;fill:none;stroke-width:2" d="M 13.5 7 L 27 7" stroke="#000000"/> 		<path id="_686AE2FB-2F39-4929-A9C8-71981DCB28EAframe3" oryx:anchors="top left" style="opacity:1;fill:none;stroke-width:2" d="M 13.5 11 L 26 11" stroke="#000000"/> 		<path id="_686AE2FB-2F39-4929-A9C8-71981DCB28EAframe4" oryx:anchors="top left" style="opacity:1;fill:none;stroke-width:1.5" d="M 14 14.5 L 25 14.5" stroke="#000000"/> 		<path id="_686AE2FB-2F39-4929-A9C8-71981DCB28EAframe5" oryx:anchors="top left" style="opacity:1;fill:none;stroke-width:1.5" d="M 8.2 3.1 L 15 3.1" stroke="#000000"/> 	</g> 	 	<g id="_686AE2FB-2F39-4929-A9C8-71981DCB28EAbusinessRuleTask" transform="scale(0.7,0.7) translate(8,8)" display="none"> 		<rect id="_686AE2FB-2F39-4929-A9C8-71981DCB28EAframe6" oryx:anchors="top left" x="0" y="0" width="22" height="4" style="opacity:1;fill:#B3B1B3;fill-opacity:1;" stroke="#000000"/> 		<rect id="_686AE2FB-2F39-4929-A9C8-71981DCB28EAframe7" oryx:anchors="top left" x="0" y="4" style="opacity:1;fill:none;" width="22" height="12" stroke="#000000"/> 		<path id="_686AE2FB-2F39-4929-A9C8-71981DCB28EAframe8" oryx:anchors="top left" style="opacity:1;fill:none;" d="M 0 10 L 22 10" stroke="#000000"/> 		<path id="_686AE2FB-2F39-4929-A9C8-71981DCB28EAframe9" oryx:anchors="top left" style="opacity:1; fill:none;" d="M 7 4 L 7 16" stroke="#000000"/> 	</g> 	 	<g id="_686AE2FB-2F39-4929-A9C8-71981DCB28EAscriptTask" transform="scale(0.7,0.7) translate(8,8)" display="inherit"> 		<path oryx:anchors="top left" id="_686AE2FB-2F39-4929-A9C8-71981DCB28EAframe10" style="opacity:1;fill:none;" stroke="#000000" d="M6.402,0.5h14.5c0,0-5.833,2.833-5.833,5.583s4.417,6,4.417,9.167    s-4.167,5.083-4.167,5.083H0.235c0,0,5-2.667,5-5s-4.583-6.75-4.583-9.25S6.402,0.5,6.402,0.5z"/> 		<path oryx:anchors="top left" id="_686AE2FB-2F39-4929-A9C8-71981DCB28EAframe11" style="opacity:1;fill:none;stroke-width:1.5" d="M 3.5 4.5 L 13.5 4.5" stroke="#000000"/> 		<path oryx:anchors="top left" id="_686AE2FB-2F39-4929-A9C8-71981DCB28EAframe12" style="opacity:1;fill:none;stroke-width:1.5" d="M 3.8 8.5 L 13.8 8.5" stroke="#000000"/> 		<path oryx:anchors="top left" id="_686AE2FB-2F39-4929-A9C8-71981DCB28EAframe13" style="opacity:1;fill:none;stroke-width:1.5" d="M 6.3 12.5 L 16.3 12.5" stroke="#000000"/> 		<path oryx:anchors="top left" id="_686AE2FB-2F39-4929-A9C8-71981DCB28EAframe14" style="opacity:1;fill:none;stroke-width:1.5" d="M 6.5 16.5 L 16.5 16.5" stroke="#000000"/> 	</g> 	 	<g id="_686AE2FB-2F39-4929-A9C8-71981DCB28EAuserTask" transform="scale(0.7,0.7) translate(8,8)" display="none"> 		<path id="_686AE2FB-2F39-4929-A9C8-71981DCB28EAframe15" oryx:anchors="top left" style="opacity:1;fill:#F4F6F7" stroke="#000000" d="M0.585,24.167h24.083v-7.833c0,0-2.333-3.917-7.083-5.167h-9.25    c-4.417,1.333-7.833,5.75-7.833,5.75L0.585,24.167z"/> 		<path id="_686AE2FB-2F39-4929-A9C8-71981DCB28EAframe16" oryx:anchors="top left" style="opacity:1;fill:none" d="M 6 20 L 6 24" stroke="#000000"/> 		<path id="_686AE2FB-2F39-4929-A9C8-71981DCB28EAframe17" oryx:anchors="top left" style="opacity:1;fill:none" d="M 20 20 L 20 24" stroke="#000000"/> 		<circle id="_686AE2FB-2F39-4929-A9C8-71981DCB28EAframe18" oryx:anchors="top left" fill="black" cx="13.002" cy="5.916" r="5.417" stroke="#000000"/> 		<path id="_686AE2FB-2F39-4929-A9C8-71981DCB28EAframe19" oryx:anchors="top left" style="opacity:1;fill:#F0EFF0;" stroke="#000000" d="M8.043,7.083c0,0,2.814-2.426,5.376-1.807s4.624-0.693,4.624-0.693    c0.25,1.688,0.042,3.75-1.458,5.584c0,0,1.083,0.75,1.083,1.5s0.125,1.875-1,3s-5.5,1.25-6.75,0S8.668,12.834,8.668,12    s0.583-1.25,1.25-1.917C8.835,9.5,7.419,7.708,8.043,7.083z"/> 	</g> 	 	<g id="_686AE2FB-2F39-4929-A9C8-71981DCB28EAserviceTask" transform="scale(0.7,0.7) translate(8,8)" display="none"> 		<polygon oryx:anchors="top left" id="_686AE2FB-2F39-4929-A9C8-71981DCB28EAframe20" style="opacity:1;fill:#ffffff" stroke="#000000" points="15.392,5.064 17.954,2.502 20.347,4.895 17.786,7.455     18.729,9.732 22.353,9.732 22.353,13.115 18.731,13.115 17.788,15.392 20.351,17.955 17.958,20.347 15.397,17.786 13.12,18.729     13.12,22.353 9.737,22.353 9.737,18.731 7.46,17.788 4.897,20.35 2.506,17.958 5.066,15.397 4.124,13.12 0.5,13.12 0.5,9.737     4.121,9.737 5.065,7.461 2.503,4.898 4.895,2.506 7.455,5.066 9.732,4.125 9.732,0.5 13.116,0.5 13.116,4.121 "/> 		<circle oryx:anchors="top left" id="_686AE2FB-2F39-4929-A9C8-71981DCB28EAframe21" style="opacity:1;fill:none" stroke="#000000" cx="11.427" cy="11.426" r="3.714"/> 		<polygon oryx:anchors="top left" id="_686AE2FB-2F39-4929-A9C8-71981DCB28EAframe22" style="opacity:1;fill:#ffffff" stroke="#000000" points="21.392,11.064 23.954,8.502 26.347,10.895 23.786,13.455     24.729,15.732 28.353,15.732 28.353,19.115 24.731,19.115 23.788,21.392 26.351,23.955 23.958,26.347 21.397,23.786 19.12,24.729     19.12,28.353 15.737,28.353 15.737,24.731 13.46,23.788 10.897,26.35 8.506,23.958 11.066,21.397 10.124,19.12 6.5,19.12     6.5,15.737 10.121,15.737 11.065,13.461 8.503,10.898 10.895,8.506 13.455,11.066 15.732,10.125 15.732,6.5 19.116,6.5     19.116,10.121 "/> 		<circle oryx:anchors="top left" id="_686AE2FB-2F39-4929-A9C8-71981DCB28EAframe23" style="opacity:1;fill:none;" stroke="#000000" cx="17.427" cy="17.426" r="3.714"/> 	</g> 	 	<g id="_686AE2FB-2F39-4929-A9C8-71981DCB28EAsendTask" display="none"> 		<path id="_686AE2FB-2F39-4929-A9C8-71981DCB28EAstframe24" oryx:anchors="left top" stroke="#FFFFFF" fill="black" stroke-width="1" d="M8,11 L8,21 L24,21 L24,11 L16,17z"/> 		<path id="_686AE2FB-2F39-4929-A9C8-71981DCB28EAstframe25" oryx:anchors="left top" stroke="#FFFFFF" fill="black" stroke-width="1" d="M7,10 L16,17 L25 10z"/> 	</g> 	 	<g id="_686AE2FB-2F39-4929-A9C8-71981DCB28EAreceiveTask" display="none"> 		<path id="_686AE2FB-2F39-4929-A9C8-71981DCB28EAframe26" oryx:anchors="left top" stroke="#000000" fill="none" stroke-width="1" d="M8,11 L8,21 L24,21 L24,11z M8,11 L16,17 L24,11"/> 	</g> 	 	<g id="_686AE2FB-2F39-4929-A9C8-71981DCB28EAnone" display="none"/>  	<g id="_686AE2FB-2F39-4929-A9C8-71981DCB28EAsequential" display="none">         <path oryx:anchors="bottom" fill="none" stroke="#000000" stroke-width="2" d="M46,76h10M46,72h10 M46,68h10" id="_686AE2FB-2F39-4929-A9C8-71981DCB28EA__686AE2FB-2F39-4929-A9C8-71981DCB28EA_20"/>     </g>   </g></g><g class="children" style="overflow:hidden"/><g class="edge"/></g><g class="controls"><g class="dockers"/><g class="magnets" transform="translate(195, 140)"><g pointer-events="all" display="none" transform="translate(-7, 12)"><circle cx="8" cy="8" r="4" stroke="none" fill="red" fill-opacity="0.3"/></g><g pointer-events="all" display="none" transform="translate(-7, 32)"><circle cx="8" cy="8" r="4" stroke="none" fill="red" fill-opacity="0.3"/></g><g pointer-events="all" display="none" transform="translate(-7, 52)"><circle cx="8" cy="8" r="4" stroke="none" fill="red" fill-opacity="0.3"/></g><g pointer-events="all" display="none" transform="translate(17, 71)"><circle cx="8" cy="8" r="4" stroke="none" fill="red" fill-opacity="0.3"/></g><g pointer-events="all" display="none" transform="translate(42, 71)"><circle cx="8" cy="8" r="4" stroke="none" fill="red" fill-opacity="0.3"/></g><g pointer-events="all" display="none" transform="translate(67, 71)"><circle cx="8" cy="8" r="4" stroke="none" fill="red" fill-opacity="0.3"/></g><g pointer-events="all" display="none" transform="translate(91, 12)"><circle cx="8" cy="8" r="4" stroke="none" fill="red" fill-opacity="0.3"/></g><g pointer-events="all" display="none" transform="translate(91, 32)"><circle cx="8" cy="8" r="4" stroke="none" fill="red" fill-opacity="0.3"/></g><g pointer-events="all" display="none" transform="translate(91, 52)"><circle cx="8" cy="8" r="4" stroke="none" fill="red" fill-opacity="0.3"/></g><g pointer-events="all" display="none" transform="translate(17, -7)"><circle cx="8" cy="8" r="4" stroke="none" fill="red" fill-opacity="0.3"/></g><g pointer-events="all" display="none" transform="translate(42, -7)"><circle cx="8" cy="8" r="4" stroke="none" fill="red" fill-opacity="0.3"/></g><g pointer-events="all" display="none" transform="translate(67, -7)"><circle cx="8" cy="8" r="4" stroke="none" fill="red" fill-opacity="0.3"/></g><g pointer-events="all" display="none" transform="translate(42, 32)"><circle cx="8" cy="8" r="4" stroke="none" fill="red" fill-opacity="0.3"/></g></g></g></g><g id="_9CBA1972-8706-4511-A159-25D98E1AB363" bpmn2nodeid="_4DE8E407-530C-451A-8A6C-3B922BC9F9D0"><g class="stencils" transform="translate(375, 140)"><g class="me"><g pointer-events="fill" oryx:minimumSize="50 40" id="_9CBA1972-8706-4511-A159-25D98E1AB363">   	<defs id="_9CBA1972-8706-4511-A159-25D98E1AB363__9CBA1972-8706-4511-A159-25D98E1AB363_17"> 		<radialGradient id="_9CBA1972-8706-4511-A159-25D98E1AB363background" cx="10%" cy="10%" r="100%" fx="10%" fy="10%"> 			<stop offset="0%" stop-color="#ffffff" stop-opacity="1" id="_9CBA1972-8706-4511-A159-25D98E1AB363__9CBA1972-8706-4511-A159-25D98E1AB363_18"/> 			<stop id="_9CBA1972-8706-4511-A159-25D98E1AB363fill_el" offset="100%" stop-color="#fafad2" stop-opacity="1"/> 		</radialGradient> 		<radialGradient id="_9CBA1972-8706-4511-A159-25D98E1AB363borderbackground" cx="10%" cy="10%" r="100%" fx="10%" fy="10%"> 			<stop offset="0%" stop-color="#ffffff" stop-opacity="1" id="_9CBA1972-8706-4511-A159-25D98E1AB363__9CBA1972-8706-4511-A159-25D98E1AB363_19"/> 			<stop id="_9CBA1972-8706-4511-A159-25D98E1AB363fill_border" offset="100%" stop-color="#000000" stop-opacity="1" stroke="#000000"/> 		</radialGradient> 	</defs> 	 	<rect id="_9CBA1972-8706-4511-A159-25D98E1AB363text_frame" oryx:anchors="bottom top right left" x="1" y="1" width="94" height="79" rx="10" ry="10" stroke="none" stroke-width="0" fill="none"/> 	<rect id="_9CBA1972-8706-4511-A159-25D98E1AB363bg_frame" oryx:resize="vertical horizontal" x="0" y="0" width="100" height="80" rx="10" ry="10" stroke="#000000" stroke-width="1" fill="url(#_9CBA1972-8706-4511-A159-25D98E1AB363background) #ffffcc"/> 		<text font-size="12" id="_9CBA1972-8706-4511-A159-25D98E1AB363text_name" x="50" y="40" oryx:align="middle center" oryx:fittoelem="text_frame" stroke="black" text-anchor="middle" stroke-width="0pt" letter-spacing="-0.01px" fill="#000000" transform="rotate(0 50 40)" visibility="inherit" oryx:fontSize="12"><tspan x="50" y="40" dy="5">Script2</tspan></text>     <g id="_9CBA1972-8706-4511-A159-25D98E1AB363manualTask" transform="scale(0.7,0.7) translate(8,8)" display="none">     	<path oryx:anchors="top left" id="_9CBA1972-8706-4511-A159-25D98E1AB363frame" style="opacity:1;fill:none;fill-opacity:1;stroke-width:1" d="M0.5,3.751l4.083-3.25c0,0,11.166,0.083,12.083,0.083s-2.417,2.917-1.5,2.917     s11.667,0,12.584,0c1.166,1.708-0.168,3.167-0.834,3.667s0.875,1.917-1,4.417c-0.75,0.25,0.75,1.875-1.333,3.333     c-1.167,0.583,0.583,1.542-1.25,2.833c-1.167,0-20.833,0.083-20.833,0.083l-2-1.333V3.751z" stroke="#000000"/> 		<path id="_9CBA1972-8706-4511-A159-25D98E1AB363frame2" oryx:anchors="top left" style="opacity:1;fill:none;stroke-width:2" d="M 13.5 7 L 27 7" stroke="#000000"/> 		<path id="_9CBA1972-8706-4511-A159-25D98E1AB363frame3" oryx:anchors="top left" style="opacity:1;fill:none;stroke-width:2" d="M 13.5 11 L 26 11" stroke="#000000"/> 		<path id="_9CBA1972-8706-4511-A159-25D98E1AB363frame4" oryx:anchors="top left" style="opacity:1;fill:none;stroke-width:1.5" d="M 14 14.5 L 25 14.5" stroke="#000000"/> 		<path id="_9CBA1972-8706-4511-A159-25D98E1AB363frame5" oryx:anchors="top left" style="opacity:1;fill:none;stroke-width:1.5" d="M 8.2 3.1 L 15 3.1" stroke="#000000"/> 	</g> 	 	<g id="_9CBA1972-8706-4511-A159-25D98E1AB363businessRuleTask" transform="scale(0.7,0.7) translate(8,8)" display="none"> 		<rect id="_9CBA1972-8706-4511-A159-25D98E1AB363frame6" oryx:anchors="top left" x="0" y="0" width="22" height="4" style="opacity:1;fill:#B3B1B3;fill-opacity:1;" stroke="#000000"/> 		<rect id="_9CBA1972-8706-4511-A159-25D98E1AB363frame7" oryx:anchors="top left" x="0" y="4" style="opacity:1;fill:none;" width="22" height="12" stroke="#000000"/> 		<path id="_9CBA1972-8706-4511-A159-25D98E1AB363frame8" oryx:anchors="top left" style="opacity:1;fill:none;" d="M 0 10 L 22 10" stroke="#000000"/> 		<path id="_9CBA1972-8706-4511-A159-25D98E1AB363frame9" oryx:anchors="top left" style="opacity:1; fill:none;" d="M 7 4 L 7 16" stroke="#000000"/> 	</g> 	 	<g id="_9CBA1972-8706-4511-A159-25D98E1AB363scriptTask" transform="scale(0.7,0.7) translate(8,8)" display="inherit"> 		<path oryx:anchors="top left" id="_9CBA1972-8706-4511-A159-25D98E1AB363frame10" style="opacity:1;fill:none;" stroke="#000000" d="M6.402,0.5h14.5c0,0-5.833,2.833-5.833,5.583s4.417,6,4.417,9.167    s-4.167,5.083-4.167,5.083H0.235c0,0,5-2.667,5-5s-4.583-6.75-4.583-9.25S6.402,0.5,6.402,0.5z"/> 		<path oryx:anchors="top left" id="_9CBA1972-8706-4511-A159-25D98E1AB363frame11" style="opacity:1;fill:none;stroke-width:1.5" d="M 3.5 4.5 L 13.5 4.5" stroke="#000000"/> 		<path oryx:anchors="top left" id="_9CBA1972-8706-4511-A159-25D98E1AB363frame12" style="opacity:1;fill:none;stroke-width:1.5" d="M 3.8 8.5 L 13.8 8.5" stroke="#000000"/> 		<path oryx:anchors="top left" id="_9CBA1972-8706-4511-A159-25D98E1AB363frame13" style="opacity:1;fill:none;stroke-width:1.5" d="M 6.3 12.5 L 16.3 12.5" stroke="#000000"/> 		<path oryx:anchors="top left" id="_9CBA1972-8706-4511-A159-25D98E1AB363frame14" style="opacity:1;fill:none;stroke-width:1.5" d="M 6.5 16.5 L 16.5 16.5" stroke="#000000"/> 	</g> 	 	<g id="_9CBA1972-8706-4511-A159-25D98E1AB363userTask" transform="scale(0.7,0.7) translate(8,8)" display="none"> 		<path id="_9CBA1972-8706-4511-A159-25D98E1AB363frame15" oryx:anchors="top left" style="opacity:1;fill:#F4F6F7" stroke="#000000" d="M0.585,24.167h24.083v-7.833c0,0-2.333-3.917-7.083-5.167h-9.25    c-4.417,1.333-7.833,5.75-7.833,5.75L0.585,24.167z"/> 		<path id="_9CBA1972-8706-4511-A159-25D98E1AB363frame16" oryx:anchors="top left" style="opacity:1;fill:none" d="M 6 20 L 6 24" stroke="#000000"/> 		<path id="_9CBA1972-8706-4511-A159-25D98E1AB363frame17" oryx:anchors="top left" style="opacity:1;fill:none" d="M 20 20 L 20 24" stroke="#000000"/> 		<circle id="_9CBA1972-8706-4511-A159-25D98E1AB363frame18" oryx:anchors="top left" fill="black" cx="13.002" cy="5.916" r="5.417" stroke="#000000"/> 		<path id="_9CBA1972-8706-4511-A159-25D98E1AB363frame19" oryx:anchors="top left" style="opacity:1;fill:#F0EFF0;" stroke="#000000" d="M8.043,7.083c0,0,2.814-2.426,5.376-1.807s4.624-0.693,4.624-0.693    c0.25,1.688,0.042,3.75-1.458,5.584c0,0,1.083,0.75,1.083,1.5s0.125,1.875-1,3s-5.5,1.25-6.75,0S8.668,12.834,8.668,12    s0.583-1.25,1.25-1.917C8.835,9.5,7.419,7.708,8.043,7.083z"/> 	</g> 	 	<g id="_9CBA1972-8706-4511-A159-25D98E1AB363serviceTask" transform="scale(0.7,0.7) translate(8,8)" display="none"> 		<polygon oryx:anchors="top left" id="_9CBA1972-8706-4511-A159-25D98E1AB363frame20" style="opacity:1;fill:#ffffff" stroke="#000000" points="15.392,5.064 17.954,2.502 20.347,4.895 17.786,7.455     18.729,9.732 22.353,9.732 22.353,13.115 18.731,13.115 17.788,15.392 20.351,17.955 17.958,20.347 15.397,17.786 13.12,18.729     13.12,22.353 9.737,22.353 9.737,18.731 7.46,17.788 4.897,20.35 2.506,17.958 5.066,15.397 4.124,13.12 0.5,13.12 0.5,9.737     4.121,9.737 5.065,7.461 2.503,4.898 4.895,2.506 7.455,5.066 9.732,4.125 9.732,0.5 13.116,0.5 13.116,4.121 "/> 		<circle oryx:anchors="top left" id="_9CBA1972-8706-4511-A159-25D98E1AB363frame21" style="opacity:1;fill:none" stroke="#000000" cx="11.427" cy="11.426" r="3.714"/> 		<polygon oryx:anchors="top left" id="_9CBA1972-8706-4511-A159-25D98E1AB363frame22" style="opacity:1;fill:#ffffff" stroke="#000000" points="21.392,11.064 23.954,8.502 26.347,10.895 23.786,13.455     24.729,15.732 28.353,15.732 28.353,19.115 24.731,19.115 23.788,21.392 26.351,23.955 23.958,26.347 21.397,23.786 19.12,24.729     19.12,28.353 15.737,28.353 15.737,24.731 13.46,23.788 10.897,26.35 8.506,23.958 11.066,21.397 10.124,19.12 6.5,19.12     6.5,15.737 10.121,15.737 11.065,13.461 8.503,10.898 10.895,8.506 13.455,11.066 15.732,10.125 15.732,6.5 19.116,6.5     19.116,10.121 "/> 		<circle oryx:anchors="top left" id="_9CBA1972-8706-4511-A159-25D98E1AB363frame23" style="opacity:1;fill:none;" stroke="#000000" cx="17.427" cy="17.426" r="3.714"/> 	</g> 	 	<g id="_9CBA1972-8706-4511-A159-25D98E1AB363sendTask" display="none"> 		<path id="_9CBA1972-8706-4511-A159-25D98E1AB363stframe24" oryx:anchors="left top" stroke="#FFFFFF" fill="black" stroke-width="1" d="M8,11 L8,21 L24,21 L24,11 L16,17z"/> 		<path id="_9CBA1972-8706-4511-A159-25D98E1AB363stframe25" oryx:anchors="left top" stroke="#FFFFFF" fill="black" stroke-width="1" d="M7,10 L16,17 L25 10z"/> 	</g> 	 	<g id="_9CBA1972-8706-4511-A159-25D98E1AB363receiveTask" display="none"> 		<path id="_9CBA1972-8706-4511-A159-25D98E1AB363frame26" oryx:anchors="left top" stroke="#000000" fill="none" stroke-width="1" d="M8,11 L8,21 L24,21 L24,11z M8,11 L16,17 L24,11"/> 	</g> 	 	<g id="_9CBA1972-8706-4511-A159-25D98E1AB363none" display="none"/>  	<g id="_9CBA1972-8706-4511-A159-25D98E1AB363sequential" display="none">         <path oryx:anchors="bottom" fill="none" stroke="#000000" stroke-width="2" d="M46,76h10M46,72h10 M46,68h10" id="_9CBA1972-8706-4511-A159-25D98E1AB363__9CBA1972-8706-4511-A159-25D98E1AB363_20"/>     </g>   </g></g><g class="children" style="overflow:hidden"/><g class="edge"/></g><g class="controls"><g class="dockers"/><g class="magnets" transform="translate(375, 140)"><g pointer-events="all" display="none" transform="translate(-7, 12)"><circle cx="8" cy="8" r="4" stroke="none" fill="red" fill-opacity="0.3"/></g><g pointer-events="all" display="none" transform="translate(-7, 32)"><circle cx="8" cy="8" r="4" stroke="none" fill="red" fill-opacity="0.3"/></g><g pointer-events="all" display="none" transform="translate(-7, 52)"><circle cx="8" cy="8" r="4" stroke="none" fill="red" fill-opacity="0.3"/></g><g pointer-events="all" display="none" transform="translate(17, 71)"><circle cx="8" cy="8" r="4" stroke="none" fill="red" fill-opacity="0.3"/></g><g pointer-events="all" display="none" transform="translate(42, 71)"><circle cx="8" cy="8" r="4" stroke="none" fill="red" fill-opacity="0.3"/></g><g pointer-events="all" display="none" transform="translate(67, 71)"><circle cx="8" cy="8" r="4" stroke="none" fill="red" fill-opacity="0.3"/></g><g pointer-events="all" display="none" transform="translate(91, 12)"><circle cx="8" cy="8" r="4" stroke="none" fill="red" fill-opacity="0.3"/></g><g pointer-events="all" display="none" transform="translate(91, 32)"><circle cx="8" cy="8" r="4" stroke="none" fill="red" fill-opacity="0.3"/></g><g pointer-events="all" display="none" transform="translate(91, 52)"><circle cx="8" cy="8" r="4" stroke="none" fill="red" fill-opacity="0.3"/></g><g pointer-events="all" display="none" transform="translate(17, -7)"><circle cx="8" cy="8" r="4" stroke="none" fill="red" fill-opacity="0.3"/></g><g pointer-events="all" display="none" transform="translate(42, -7)"><circle cx="8" cy="8" r="4" stroke="none" fill="red" fill-opacity="0.3"/></g><g pointer-events="all" display="none" transform="translate(67, -7)"><circle cx="8" cy="8" r="4" stroke="none" fill="red" fill-opacity="0.3"/></g><g pointer-events="all" display="none" transform="translate(42, 32)"><circle cx="8" cy="8" r="4" stroke="none" fill="red" fill-opacity="0.3"/></g></g></g></g><g id="_51656B3F-8EC9-492B-9582-C4054731A722" bpmn2nodeid="_B1EE9FCC-0F4B-4F67-AE17-0E591C7A1EC8"><g class="stencils" transform="translate(525, 166)"><g class="me"><g pointer-events="fill" id="_51656B3F-8EC9-492B-9582-C4054731A722">      <defs id="_51656B3F-8EC9-492B-9582-C4054731A722__51656B3F-8EC9-492B-9582-C4054731A722_5"> 		<radialGradient id="_51656B3F-8EC9-492B-9582-C4054731A722background" cx="10%" cy="10%" r="100%" fx="10%" fy="10%"> 			<stop offset="0%" stop-color="#ffffff" stop-opacity="1" id="_51656B3F-8EC9-492B-9582-C4054731A722__51656B3F-8EC9-492B-9582-C4054731A722_6"/> 			<stop id="_51656B3F-8EC9-492B-9582-C4054731A722fill_el" offset="100%" stop-color="#ff6347" stop-opacity="1"/> 		</radialGradient> 	</defs> 	     <circle id="_51656B3F-8EC9-492B-9582-C4054731A722bg_frame" cx="14" cy="14" r="14" stroke="#000000" fill="url(#_51656B3F-8EC9-492B-9582-C4054731A722background) white" stroke-width="3"/> 	<text font-size="11" id="_51656B3F-8EC9-492B-9582-C4054731A722text_name" x="14" y="30" oryx:align="top center" stroke="black" stroke-width="0pt" letter-spacing="-0.01px" fill="#000000" text-anchor="middle" transform="rotate(0 14 30)" visibility="inherit" oryx:fontSize="11"/>   </g></g><g class="children" style="overflow:hidden"/><g class="edge"/></g><g class="controls"><g class="dockers"/><g class="magnets" transform="translate(525, 166)"><g pointer-events="all" display="none" transform="translate(6, 6)"><circle cx="8" cy="8" r="4" stroke="none" fill="red" fill-opacity="0.3"/></g></g></g></g><g id="_7F1D5FA2-27F3-4DE5-A9C1-75F7288C4772" bpmn2nodeid="_47C21C61-AAA8-4475-9027-E84482A2DD7E"><g class="stencils" transform="translate(201, 286.5)"><g class="me"><g pointer-events="fill" id="_7F1D5FA2-27F3-4DE5-A9C1-75F7288C4772"> 	    <defs id="_7F1D5FA2-27F3-4DE5-A9C1-75F7288C4772__7F1D5FA2-27F3-4DE5-A9C1-75F7288C4772_9"> 			<radialGradient id="_7F1D5FA2-27F3-4DE5-A9C1-75F7288C4772background" cx="1%" cy="1%" r="1%" fx="1%" fy="1%"> 				<stop offset="0%" stop-color="#ffffff" stop-opacity="1" id="_7F1D5FA2-27F3-4DE5-A9C1-75F7288C4772__7F1D5FA2-27F3-4DE5-A9C1-75F7288C4772_10"/> 				<stop id="_7F1D5FA2-27F3-4DE5-A9C1-75F7288C4772fill_el" offset="100%" stop-color="#C0C0C0" stop-opacity="1"/> 			</radialGradient> 		</defs> 		 		<polyline id="_7F1D5FA2-27F3-4DE5-A9C1-75F7288C4772frame" oryx:resize="vertical horizontal" oryx:anchors="left right" stroke="#000000" fill="url(#_7F1D5FA2-27F3-4DE5-A9C1-75F7288C4772background)" stroke-width="1" points="78,97 0,97 0,0 78,0"/> 		 		<polyline id="_7F1D5FA2-27F3-4DE5-A9C1-75F7288C4772frame2" oryx:anchors="right top bottom" stroke="#000000" fill="url(#_7F1D5FA2-27F3-4DE5-A9C1-75F7288C4772background)" stroke-width="1" points="78,97 88,97 88,10 78,10"/> 		 		<polyline id="_7F1D5FA2-27F3-4DE5-A9C1-75F7288C4772frame3" oryx:anchors="right top" stroke="#000000" fill="url(#_7F1D5FA2-27F3-4DE5-A9C1-75F7288C4772background)" stroke-width="1" points="88,10 78,0 78,10 88,10"/> 		 		<rect id="_7F1D5FA2-27F3-4DE5-A9C1-75F7288C4772unvisibleBorder" x="0" y="0" height="97" width="88" stroke="none" fill="none" oryx:resize="horizontal vertical"/> 		 		<text font-size="12" id="_7F1D5FA2-27F3-4DE5-A9C1-75F7288C4772text_name" x="44" y="48.5" oryx:align="middle center" oryx:fittoelem="unvisibleBorder" stroke="black" stroke-width="0pt" letter-spacing="-0.01px" fill="#000000" text-anchor="middle" transform="rotate(0 44 48.5)" visibility="inherit" oryx:fontSize="12"><tspan x="44" y="48.5" dy="-1">DATA_OBJEC</tspan><tspan x="44" y="48.5" dy="11">T_1</tspan></text> 		 		<text font-size="11" id="_7F1D5FA2-27F3-4DE5-A9C1-75F7288C4772text_state" x="44" y="80" oryx:align="middle center" stroke="black" oryx:anchors="bottom" stroke-width="0pt" letter-spacing="-0.01px" text-anchor="middle" transform="rotate(0 44 80)" visibility="inherit" oryx:fontSize="11"/> 		 		<polygon oryx:anchors="left top" id="_7F1D5FA2-27F3-4DE5-A9C1-75F7288C4772input" stroke="black" fill="white" stroke-width="1.4" points="9,13 19,13 19,10 25,16 19,22 19,19 9,19" stroke-linecap="butt" stroke-linejoin="miter" stroke-miterlimit="10" display="none"/> 		 		<polygon oryx:anchors="left top" id="_7F1D5FA2-27F3-4DE5-A9C1-75F7288C4772output" stroke="black" fill="black" stroke-width="1" points="9,13 19,13 19,10 25,16 19,22 19,19 9,19" stroke-linecap="butt" stroke-linejoin="miter" stroke-miterlimit="10" display="none"/> 		 		undefined 	</g></g><g class="children" style="overflow:hidden"/><g class="edge"/></g><g class="controls"><g class="dockers"/><g class="magnets" transform="translate(201, 286.5)"><g pointer-events="all" display="none" transform="translate(-8, 40.5)"><circle cx="8" cy="8" r="4" stroke="none" fill="red" fill-opacity="0.3"/></g><g pointer-events="all" display="none" transform="translate(36, 89)"><circle cx="8" cy="8" r="4" stroke="none" fill="red" fill-opacity="0.3"/></g><g pointer-events="all" display="none" transform="translate(80, 40.5)"><circle cx="8" cy="8" r="4" stroke="none" fill="red" fill-opacity="0.3"/></g><g pointer-events="all" display="none" transform="translate(36, -8)"><circle cx="8" cy="8" r="4" stroke="none" fill="red" fill-opacity="0.3"/></g><g pointer-events="all" display="none" transform="translate(36, 40.5)"><circle cx="8" cy="8" r="4" stroke="none" fill="red" fill-opacity="0.3"/></g></g></g></g></g><g class="edge"><g id="_8C3B1824-A4E9-4B28-AB01-DDE5574336B1" bpmn2nodeid="_D926D0C6-87BE-45BD-82E3-C86778A79EBA"><g class="stencils"><g class="me"><g pointer-events="painted" bpmn2nodeid="_D926D0C6-87BE-45BD-82E3-C86778A79EBA"><path id="_8C3B1824-A4E9-4B28-AB01-DDE5574336B1_1" d="M150.609375 180L194.15625 180 " stroke="#000000" fill="none" stroke-width="2" stroke-linecap="round" stroke-linejoin="round" marker-start="url(#_8C3B1824-A4E9-4B28-AB01-DDE5574336B1start)" marker-end="url(#_8C3B1824-A4E9-4B28-AB01-DDE5574336B1end)"/></g><text id="_8C3B1824-A4E9-4B28-AB01-DDE5574336B1text_name" font-size="12" x="164.609375" y="166" oryx:edgePosition="startTop" stroke-width="0pt" letter-spacing="-0.01px" fill="#000000" text-anchor="start" transform="rotate(360 150.609375 180)" visibility="inherit" oryx:fontSize="12"/></g><g class="children" style="overflow:hidden"/><g class="edge"/></g><g class="controls"><g class="dockers"/><g class="magnets"/></g></g><g id="_161E1E34-0C71-4015-B195-E13F73AB5EDF" bpmn2nodeid="_7ABF7D18-401B-40D7-B8B9-B86A48B9D2CE"><g class="stencils"><g class="me"><g pointer-events="painted" bpmn2nodeid="_7ABF7D18-401B-40D7-B8B9-B86A48B9D2CE"><path id="_161E1E34-0C71-4015-B195-E13F73AB5EDF_1" d="M295.21875 180L374.78125 180 " stroke="#000000" fill="none" stroke-width="2" stroke-linecap="round" stroke-linejoin="round" marker-start="url(#_161E1E34-0C71-4015-B195-E13F73AB5EDFstart)" marker-end="url(#_161E1E34-0C71-4015-B195-E13F73AB5EDFend)"/></g><text id="_161E1E34-0C71-4015-B195-E13F73AB5EDFtext_name" font-size="12" x="309.21875" y="166" oryx:edgePosition="startTop" stroke-width="0pt" letter-spacing="-0.01px" fill="#000000" text-anchor="start" transform="rotate(360 295.21875 180)" visibility="inherit" oryx:fontSize="12"/></g><g class="children" style="overflow:hidden"/><g class="edge"/></g><g class="controls"><g class="dockers"/><g class="magnets"/></g></g><g id="_460A79B2-7A60-49CB-89B4-8FBA5D06B9CD" bpmn2nodeid="_A77C8F1F-8D8C-41B0-86F6-80353A78B689"><g class="stencils"><g class="me"><g pointer-events="painted" bpmn2nodeid="_A77C8F1F-8D8C-41B0-86F6-80353A78B689"><path id="_460A79B2-7A60-49CB-89B4-8FBA5D06B9CD_1" d="M475.875 180L524.640625 180 " stroke="#000000" fill="none" stroke-width="2" stroke-linecap="round" stroke-linejoin="round" marker-start="url(#_460A79B2-7A60-49CB-89B4-8FBA5D06B9CDstart)" marker-end="url(#_460A79B2-7A60-49CB-89B4-8FBA5D06B9CDend)"/></g><text id="_460A79B2-7A60-49CB-89B4-8FBA5D06B9CDtext_name" font-size="12" x="489.875" y="166" oryx:edgePosition="startTop" stroke-width="0pt" letter-spacing="-0.01px" fill="#000000" text-anchor="start" transform="rotate(360 475.875 180)" visibility="inherit" oryx:fontSize="12"/></g><g class="children" style="overflow:hidden"/><g class="edge"/></g><g class="controls"><g class="dockers"/><g class="magnets"/></g></g><g id="_74D014EF-441C-4A3A-BB76-53E58AB7EFAC" bpmn2nodeid="_6F93D388-8777-403C-AA31-869B4D699B72"><g class="stencils"><g class="me"><g pointer-events="painted" bpmn2nodeid="_6F93D388-8777-403C-AA31-869B4D699B72"><path id="_74D014EF-441C-4A3A-BB76-53E58AB7EFAC_1" d="M245 220.9609375L245 285.5625 " stroke="#000000" fill="none" stroke-width="2" stroke-dasharray="3, 4" marker-end="url(#_74D014EF-441C-4A3A-BB76-53E58AB7EFACend)"/></g><text id="_74D014EF-441C-4A3A-BB76-53E58AB7EFACtext_name" x="245" y="247.26171875" oryx:edgePosition="midTop" oryx:offsetTop="6" style="font-size:9px;" stroke-width="0pt" letter-spacing="-0.01px" text-anchor="middle" transform="rotate(-90 245 253.26171875)" visibility="inherit" oryx:fontSize="12"/></g><g class="children" style="overflow:hidden"/><g class="edge"/></g><g class="controls"><g class="dockers"/><g class="magnets"/></g></g><g id="_54309E8D-3B13-483E-BBB6-46296B993052" bpmn2nodeid="_D52E420B-0FC3-4F93-B338-21E722A99B1B"><g class="stencils"><g class="me"><g pointer-events="painted" bpmn2nodeid="_D52E420B-0FC3-4F93-B338-21E722A99B1B"><path id="_54309E8D-3B13-483E-BBB6-46296B993052_1" d="M425 220.9609375L425 335 L289.59375 335 " stroke="#000000" fill="none" stroke-width="2" stroke-dasharray="3, 4" marker-end="url(#_54309E8D-3B13-483E-BBB6-46296B993052end)"/></g><text id="_54309E8D-3B13-483E-BBB6-46296B993052text_name" x="419" y="329" oryx:edgePosition="midTop" oryx:offsetTop="6" style="font-size:9px;" stroke-width="0pt" letter-spacing="-0.01px" text-anchor="end" transform="rotate(0 425 335)" visibility="inherit" oryx:fontSize="12"/></g><g class="children" style="overflow:hidden"/><g class="edge"/></g><g class="controls"><g class="dockers"/><g class="magnets"/></g></g></g><text id="_EEEBF744-ABC1-4E4E-83C5-3453EC11C251" style="stroke-width:1;fill:rgb(177,194,214);font-family:arial;font-weight:bold" font-size="12" onclick="ORYX.Plugins.CanvasTitle.openTextualAnalysis()" onmouseover="ORYX.Plugins.CanvasTitle.addToolTip('_EEEBF744-ABC1-4E4E-83C5-3453EC11C251')" transform="translate(10, 20)">TestInputDataObjectNoUserTask v.1.0 (com.myspace.testdataobjects.TestInputDataObjectNoUserTask)</text></g></g></svg>