<svg xmlns="http://www.w3.org/2000/svg" xmlns:oryx="http://oryx-editor.org" id="_35D04497-E16A-4741-A384-394D1172377B" width="578.0625" height="468" xmlns:xlink="http://www.w3.org/1999/xlink" xmlns:svg="http://www.w3.org/2000/svg"><defs><marker id="_5A8EE2A0-9216-44A3-B1BB-014D4BDCEEC8start" refX="1" refY="5" markerUnits="userSpaceOnUse" markerWidth="17" markerHeight="11" orient="auto" fill="#000000" stroke="#000000"> 	  		<path id="_5A8EE2A0-9216-44A3-B1BB-014D4BDCEEC8conditional" d="M 0 5 L 8 0 L 16 5 L 8 10 L 0 5" fill="white" stroke="#000000" stroke-width="1" display="none"/> 			<path id="_5A8EE2A0-9216-44A3-B1BB-014D4BDCEEC8default" d="M 5 0 L 11 10" fill="white" stroke="#000000" stroke-width="1" display="none"/> 	  	</marker><marker id="_5A8EE2A0-9216-44A3-B1BB-014D4BDCEEC8end" refX="15" refY="6" markerUnits="userSpaceOnUse" markerWidth="15" markerHeight="12" orient="auto" fill="#000000" stroke="#000000"> 	  		<path id="_5A8EE2A0-9216-44A3-B1BB-014D4BDCEEC8frame2" d="M 0 1 L 15 6 L 0 11z" fill="#000000" stroke="#000000" stroke-linejoin="round" stroke-width="2"/> 	  	</marker><marker id="_55C9E1D7-9F32-426F-A445-1439E2D6460Astart" refX="1" refY="5" markerUnits="userSpaceOnUse" markerWidth="17" markerHeight="11" orient="auto" fill="#000000" stroke="#000000"> 	  		<path id="_55C9E1D7-9F32-426F-A445-1439E2D6460Aconditional" d="M 0 5 L 8 0 L 16 5 L 8 10 L 0 5" fill="white" stroke="#000000" stroke-width="1" display="none"/> 			<path id="_55C9E1D7-9F32-426F-A445-1439E2D6460Adefault" d="M 5 0 L 11 10" fill="white" stroke="#000000" stroke-width="1" display="none"/> 	  	</marker><marker id="_55C9E1D7-9F32-426F-A445-1439E2D6460Aend" refX="15" refY="6" markerUnits="userSpaceOnUse" markerWidth="15" markerHeight="12" orient="auto" fill="#000000" stroke="#000000"> 	  		<path id="_55C9E1D7-9F32-426F-A445-1439E2D6460Aframe2" d="M 0 1 L 15 6 L 0 11z" fill="#000000" stroke="#000000" stroke-linejoin="round" stroke-width="2"/> 	  	</marker><marker id="_EA5545E7-853F-4E45-9BFA-8508389F9DAAstart" refX="1" refY="5" markerUnits="userSpaceOnUse" markerWidth="17" markerHeight="11" orient="auto" fill="#000000" stroke="#000000"> 	  		<path id="_EA5545E7-853F-4E45-9BFA-8508389F9DAAconditional" d="M 0 5 L 8 0 L 16 5 L 8 10 L 0 5" fill="white" stroke="#000000" stroke-width="1" display="none"/> 			<path id="_EA5545E7-853F-4E45-9BFA-8508389F9DAAdefault" d="M 5 0 L 11 10" fill="white" stroke="#000000" stroke-width="1" display="none"/> 	  	</marker><marker id="_EA5545E7-853F-4E45-9BFA-8508389F9DAAend" refX="15" refY="6" markerUnits="userSpaceOnUse" markerWidth="15" markerHeight="12" orient="auto" fill="#000000" stroke="#000000"> 	  		<path id="_EA5545E7-853F-4E45-9BFA-8508389F9DAAframe2" d="M 0 1 L 15 6 L 0 11z" fill="#000000" stroke="#000000" stroke-linejoin="round" stroke-width="2"/> 	  	</marker><marker id="_56AC2834-B11E-452B-BB0E-CB1F4E497F73end" refX="10" refY="5" markerUnits="userSpaceOnUse" markerWidth="10" markerHeight="10" orient="auto" stroke="#000000"> 	  		<path id="_56AC2834-B11E-452B-BB0E-CB1F4E497F73frame2" d="M 0 0 L 10 5 L 0 10" fill="none" stroke="#000000"/> 	  	</marker><marker id="_4FDFCEF5-2CD3-47FD-9B9F-4DDD07E7807Eend" refX="10" refY="5" markerUnits="userSpaceOnUse" markerWidth="10" markerHeight="10" orient="auto" stroke="#000000"> 	  		<path id="_4FDFCEF5-2CD3-47FD-9B9F-4DDD07E7807Eframe2" d="M 0 0 L 10 5 L 0 10" fill="none" stroke="#000000"/> 	  	</marker></defs><g stroke="none" font-family="Verdana, sans-serif" font-size-adjust="none" font-style="normal" font-variant="normal" font-weight="normal" line-heigth="normal" font-size="12"><g class="stencils" transform="translate(16, 16)"><g class="me"/><g class="children"><g id="_2A8133A0-F2C8-458B-99D4-7B59B3F96C0E" bpmn2nodeid="processStartEvent"><g class="stencils" transform="translate(75, 165)"><g class="me"><g pointer-events="fill" id="_2A8133A0-F2C8-458B-99D4-7B59B3F96C0E">        <defs id="_2A8133A0-F2C8-458B-99D4-7B59B3F96C0E__2A8133A0-F2C8-458B-99D4-7B59B3F96C0E_5"> 		<radialGradient id="_2A8133A0-F2C8-458B-99D4-7B59B3F96C0Ebackground" cx="10%" cy="10%" r="100%" fx="10%" fy="10%"> 			<stop offset="0%" stop-color="#ffffff" stop-opacity="1" id="_2A8133A0-F2C8-458B-99D4-7B59B3F96C0E__2A8133A0-F2C8-458B-99D4-7B59B3F96C0E_6"/> 			<stop id="_2A8133A0-F2C8-458B-99D4-7B59B3F96C0Efill_el" offset="100%" stop-color="#9acd32" stop-opacity="1"/> 		</radialGradient> 	</defs> 	     <circle id="_2A8133A0-F2C8-458B-99D4-7B59B3F96C0Ebg_frame" cx="15" cy="15" r="15" stroke="#000000" fill="url(#_2A8133A0-F2C8-458B-99D4-7B59B3F96C0Ebackground) white" stroke-width="1" style="stroke-dasharray: 5.5, 3"/>      <circle id="_2A8133A0-F2C8-458B-99D4-7B59B3F96C0Eframe" cx="15" cy="15" r="15" stroke="#000000" fill="none" stroke-width="1" display="inherit"/>  	<text font-size="11" id="_2A8133A0-F2C8-458B-99D4-7B59B3F96C0Etext_name" x="15" y="32" oryx:align="top center" stroke="black" stroke-width="0pt" letter-spacing="-0.01px" fill="#000000" text-anchor="middle" transform="rotate(0 15 32)" visibility="inherit" oryx:fontSize="11"/>   </g></g><g class="children" style="overflow:hidden"/><g class="edge"/></g><g class="controls"><g class="dockers"/><g class="magnets" transform="translate(75, 165)"><g pointer-events="all" display="none" transform="translate(7, 7)"><circle cx="8" cy="8" r="4" stroke="none" fill="red" fill-opacity="0.3"/></g></g></g></g><g id="_ED1DBFFA-4909-41A9-B337-F9C5953BC3F3" bpmn2nodeid="_F9BD579A-AB0C-4AD8-AF6E-AF3B1C4308CC"><g class="stencils" transform="translate(165, 140)"><g class="me"><g pointer-events="fill" oryx:minimumSize="50 40" id="_ED1DBFFA-4909-41A9-B337-F9C5953BC3F3">   	<defs id="_ED1DBFFA-4909-41A9-B337-F9C5953BC3F3__ED1DBFFA-4909-41A9-B337-F9C5953BC3F3_17"> 		<radialGradient id="_ED1DBFFA-4909-41A9-B337-F9C5953BC3F3background" cx="10%" cy="10%" r="100%" fx="10%" fy="10%"> 			<stop offset="0%" stop-color="#ffffff" stop-opacity="1" id="_ED1DBFFA-4909-41A9-B337-F9C5953BC3F3__ED1DBFFA-4909-41A9-B337-F9C5953BC3F3_18"/> 			<stop id="_ED1DBFFA-4909-41A9-B337-F9C5953BC3F3fill_el" offset="100%" stop-color="#fafad2" stop-opacity="1"/> 		</radialGradient> 		<radialGradient id="_ED1DBFFA-4909-41A9-B337-F9C5953BC3F3borderbackground" cx="10%" cy="10%" r="100%" fx="10%" fy="10%"> 			<stop offset="0%" stop-color="#ffffff" stop-opacity="1" id="_ED1DBFFA-4909-41A9-B337-F9C5953BC3F3__ED1DBFFA-4909-41A9-B337-F9C5953BC3F3_19"/> 			<stop id="_ED1DBFFA-4909-41A9-B337-F9C5953BC3F3fill_border" offset="100%" stop-color="#000000" stop-opacity="1" stroke="#000000"/> 		</radialGradient> 	</defs> 	 	<rect id="_ED1DBFFA-4909-41A9-B337-F9C5953BC3F3text_frame" oryx:anchors="bottom top right left" x="1" y="1" width="94" height="79" rx="10" ry="10" stroke="none" stroke-width="0" fill="none"/> 	<rect id="_ED1DBFFA-4909-41A9-B337-F9C5953BC3F3bg_frame" oryx:resize="vertical horizontal" x="0" y="0" width="100" height="80" rx="10" ry="10" stroke="#000000" stroke-width="1" fill="url(#_ED1DBFFA-4909-41A9-B337-F9C5953BC3F3background) #ffffcc"/> 		<text font-size="12" id="_ED1DBFFA-4909-41A9-B337-F9C5953BC3F3text_name" x="50" y="40" oryx:align="middle center" oryx:fittoelem="text_frame" stroke="black" text-anchor="middle" stroke-width="0pt" letter-spacing="-0.01px" fill="#000000" transform="rotate(0 50 40)" visibility="inherit" oryx:fontSize="12"><tspan x="50" y="40" dy="-1" id="ext-gen934">TASK1_WITH_</tspan><tspan x="50" y="40" dy="11" id="ext-gen933">OUTPUT_INPUT</tspan></text>     <g id="_ED1DBFFA-4909-41A9-B337-F9C5953BC3F3manualTask" transform="scale(0.7,0.7) translate(8,8)" display="none">     	<path oryx:anchors="top left" id="_ED1DBFFA-4909-41A9-B337-F9C5953BC3F3frame" style="opacity:1;fill:none;fill-opacity:1;stroke-width:1" d="M0.5,3.751l4.083-3.25c0,0,11.166,0.083,12.083,0.083s-2.417,2.917-1.5,2.917     s11.667,0,12.584,0c1.166,1.708-0.168,3.167-0.834,3.667s0.875,1.917-1,4.417c-0.75,0.25,0.75,1.875-1.333,3.333     c-1.167,0.583,0.583,1.542-1.25,2.833c-1.167,0-20.833,0.083-20.833,0.083l-2-1.333V3.751z" stroke="#000000"/> 		<path id="_ED1DBFFA-4909-41A9-B337-F9C5953BC3F3frame2" oryx:anchors="top left" style="opacity:1;fill:none;stroke-width:2" d="M 13.5 7 L 27 7" stroke="#000000"/> 		<path id="_ED1DBFFA-4909-41A9-B337-F9C5953BC3F3frame3" oryx:anchors="top left" style="opacity:1;fill:none;stroke-width:2" d="M 13.5 11 L 26 11" stroke="#000000"/> 		<path id="_ED1DBFFA-4909-41A9-B337-F9C5953BC3F3frame4" oryx:anchors="top left" style="opacity:1;fill:none;stroke-width:1.5" d="M 14 14.5 L 25 14.5" stroke="#000000"/> 		<path id="_ED1DBFFA-4909-41A9-B337-F9C5953BC3F3frame5" oryx:anchors="top left" style="opacity:1;fill:none;stroke-width:1.5" d="M 8.2 3.1 L 15 3.1" stroke="#000000"/> 	</g> 	 	<g id="_ED1DBFFA-4909-41A9-B337-F9C5953BC3F3businessRuleTask" transform="scale(0.7,0.7) translate(8,8)" display="none"> 		<rect id="_ED1DBFFA-4909-41A9-B337-F9C5953BC3F3frame6" oryx:anchors="top left" x="0" y="0" width="22" height="4" style="opacity:1;fill:#B3B1B3;fill-opacity:1;" stroke="#000000"/> 		<rect id="_ED1DBFFA-4909-41A9-B337-F9C5953BC3F3frame7" oryx:anchors="top left" x="0" y="4" style="opacity:1;fill:none;" width="22" height="12" stroke="#000000"/> 		<path id="_ED1DBFFA-4909-41A9-B337-F9C5953BC3F3frame8" oryx:anchors="top left" style="opacity:1;fill:none;" d="M 0 10 L 22 10" stroke="#000000"/> 		<path id="_ED1DBFFA-4909-41A9-B337-F9C5953BC3F3frame9" oryx:anchors="top left" style="opacity:1; fill:none;" d="M 7 4 L 7 16" stroke="#000000"/> 	</g> 	 	<g id="_ED1DBFFA-4909-41A9-B337-F9C5953BC3F3scriptTask" transform="scale(0.7,0.7) translate(8,8)" display="none"> 		<path oryx:anchors="top left" id="_ED1DBFFA-4909-41A9-B337-F9C5953BC3F3frame10" style="opacity:1;fill:none;" stroke="#000000" d="M6.402,0.5h14.5c0,0-5.833,2.833-5.833,5.583s4.417,6,4.417,9.167    s-4.167,5.083-4.167,5.083H0.235c0,0,5-2.667,5-5s-4.583-6.75-4.583-9.25S6.402,0.5,6.402,0.5z"/> 		<path oryx:anchors="top left" id="_ED1DBFFA-4909-41A9-B337-F9C5953BC3F3frame11" style="opacity:1;fill:none;stroke-width:1.5" d="M 3.5 4.5 L 13.5 4.5" stroke="#000000"/> 		<path oryx:anchors="top left" id="_ED1DBFFA-4909-41A9-B337-F9C5953BC3F3frame12" style="opacity:1;fill:none;stroke-width:1.5" d="M 3.8 8.5 L 13.8 8.5" stroke="#000000"/> 		<path oryx:anchors="top left" id="_ED1DBFFA-4909-41A9-B337-F9C5953BC3F3frame13" style="opacity:1;fill:none;stroke-width:1.5" d="M 6.3 12.5 L 16.3 12.5" stroke="#000000"/> 		<path oryx:anchors="top left" id="_ED1DBFFA-4909-41A9-B337-F9C5953BC3F3frame14" style="opacity:1;fill:none;stroke-width:1.5" d="M 6.5 16.5 L 16.5 16.5" stroke="#000000"/> 	</g> 	 	<g id="_ED1DBFFA-4909-41A9-B337-F9C5953BC3F3userTask" transform="scale(0.7,0.7) translate(8,8)" display="inherit"> 		<path id="_ED1DBFFA-4909-41A9-B337-F9C5953BC3F3frame15" oryx:anchors="top left" style="opacity:1;fill:#F4F6F7" stroke="#000000" d="M0.585,24.167h24.083v-7.833c0,0-2.333-3.917-7.083-5.167h-9.25    c-4.417,1.333-7.833,5.75-7.833,5.75L0.585,24.167z"/> 		<path id="_ED1DBFFA-4909-41A9-B337-F9C5953BC3F3frame16" oryx:anchors="top left" style="opacity:1;fill:none" d="M 6 20 L 6 24" stroke="#000000"/> 		<path id="_ED1DBFFA-4909-41A9-B337-F9C5953BC3F3frame17" oryx:anchors="top left" style="opacity:1;fill:none" d="M 20 20 L 20 24" stroke="#000000"/> 		<circle id="_ED1DBFFA-4909-41A9-B337-F9C5953BC3F3frame18" oryx:anchors="top left" fill="black" cx="13.002" cy="5.916" r="5.417" stroke="#000000"/> 		<path id="_ED1DBFFA-4909-41A9-B337-F9C5953BC3F3frame19" oryx:anchors="top left" style="opacity:1;fill:#F0EFF0;" stroke="#000000" d="M8.043,7.083c0,0,2.814-2.426,5.376-1.807s4.624-0.693,4.624-0.693    c0.25,1.688,0.042,3.75-1.458,5.584c0,0,1.083,0.75,1.083,1.5s0.125,1.875-1,3s-5.5,1.25-6.75,0S8.668,12.834,8.668,12    s0.583-1.25,1.25-1.917C8.835,9.5,7.419,7.708,8.043,7.083z"/> 	</g> 	 	<g id="_ED1DBFFA-4909-41A9-B337-F9C5953BC3F3serviceTask" transform="scale(0.7,0.7) translate(8,8)" display="none"> 		<polygon oryx:anchors="top left" id="_ED1DBFFA-4909-41A9-B337-F9C5953BC3F3frame20" style="opacity:1;fill:#ffffff" stroke="#000000" points="15.392,5.064 17.954,2.502 20.347,4.895 17.786,7.455     18.729,9.732 22.353,9.732 22.353,13.115 18.731,13.115 17.788,15.392 20.351,17.955 17.958,20.347 15.397,17.786 13.12,18.729     13.12,22.353 9.737,22.353 9.737,18.731 7.46,17.788 4.897,20.35 2.506,17.958 5.066,15.397 4.124,13.12 0.5,13.12 0.5,9.737     4.121,9.737 5.065,7.461 2.503,4.898 4.895,2.506 7.455,5.066 9.732,4.125 9.732,0.5 13.116,0.5 13.116,4.121 "/> 		<circle oryx:anchors="top left" id="_ED1DBFFA-4909-41A9-B337-F9C5953BC3F3frame21" style="opacity:1;fill:none" stroke="#000000" cx="11.427" cy="11.426" r="3.714"/> 		<polygon oryx:anchors="top left" id="_ED1DBFFA-4909-41A9-B337-F9C5953BC3F3frame22" style="opacity:1;fill:#ffffff" stroke="#000000" points="21.392,11.064 23.954,8.502 26.347,10.895 23.786,13.455     24.729,15.732 28.353,15.732 28.353,19.115 24.731,19.115 23.788,21.392 26.351,23.955 23.958,26.347 21.397,23.786 19.12,24.729     19.12,28.353 15.737,28.353 15.737,24.731 13.46,23.788 10.897,26.35 8.506,23.958 11.066,21.397 10.124,19.12 6.5,19.12     6.5,15.737 10.121,15.737 11.065,13.461 8.503,10.898 10.895,8.506 13.455,11.066 15.732,10.125 15.732,6.5 19.116,6.5     19.116,10.121 "/> 		<circle oryx:anchors="top left" id="_ED1DBFFA-4909-41A9-B337-F9C5953BC3F3frame23" style="opacity:1;fill:none;" stroke="#000000" cx="17.427" cy="17.426" r="3.714"/> 	</g> 	 	<g id="_ED1DBFFA-4909-41A9-B337-F9C5953BC3F3sendTask" display="none"> 		<path id="_ED1DBFFA-4909-41A9-B337-F9C5953BC3F3stframe24" oryx:anchors="left top" stroke="#FFFFFF" fill="black" stroke-width="1" d="M8,11 L8,21 L24,21 L24,11 L16,17z"/> 		<path id="_ED1DBFFA-4909-41A9-B337-F9C5953BC3F3stframe25" oryx:anchors="left top" stroke="#FFFFFF" fill="black" stroke-width="1" d="M7,10 L16,17 L25 10z"/> 	</g> 	 	<g id="_ED1DBFFA-4909-41A9-B337-F9C5953BC3F3receiveTask" display="none"> 		<path id="_ED1DBFFA-4909-41A9-B337-F9C5953BC3F3frame26" oryx:anchors="left top" stroke="#000000" fill="none" stroke-width="1" d="M8,11 L8,21 L24,21 L24,11z M8,11 L16,17 L24,11"/> 	</g> 	 	<g id="_ED1DBFFA-4909-41A9-B337-F9C5953BC3F3none" display="none"/>  	<g id="_ED1DBFFA-4909-41A9-B337-F9C5953BC3F3sequential" display="none">         <path oryx:anchors="bottom" fill="none" stroke="#000000" stroke-width="2" d="M46,76h10M46,72h10 M46,68h10" id="_ED1DBFFA-4909-41A9-B337-F9C5953BC3F3__ED1DBFFA-4909-41A9-B337-F9C5953BC3F3_20"/>     </g>   </g></g><g class="children" style="overflow:hidden"/><g class="edge"/></g><g class="controls"><g class="dockers"/><g class="magnets" transform="translate(165, 140)"><g pointer-events="all" display="none" transform="translate(-7, 12)"><circle cx="8" cy="8" r="4" stroke="none" fill="red" fill-opacity="0.3"/></g><g pointer-events="all" display="none" transform="translate(-7, 32)"><circle cx="8" cy="8" r="4" stroke="none" fill="red" fill-opacity="0.3"/></g><g pointer-events="all" display="none" transform="translate(-7, 52)"><circle cx="8" cy="8" r="4" stroke="none" fill="red" fill-opacity="0.3"/></g><g pointer-events="all" display="none" transform="translate(17, 71)"><circle cx="8" cy="8" r="4" stroke="none" fill="red" fill-opacity="0.3"/></g><g pointer-events="all" display="none" transform="translate(42, 71)"><circle cx="8" cy="8" r="4" stroke="none" fill="red" fill-opacity="0.3"/></g><g pointer-events="all" display="none" transform="translate(67, 71)"><circle cx="8" cy="8" r="4" stroke="none" fill="red" fill-opacity="0.3"/></g><g pointer-events="all" display="none" transform="translate(91, 12)"><circle cx="8" cy="8" r="4" stroke="none" fill="red" fill-opacity="0.3"/></g><g pointer-events="all" display="none" transform="translate(91, 32)"><circle cx="8" cy="8" r="4" stroke="none" fill="red" fill-opacity="0.3"/></g><g pointer-events="all" display="none" transform="translate(91, 52)"><circle cx="8" cy="8" r="4" stroke="none" fill="red" fill-opacity="0.3"/></g><g pointer-events="all" display="none" transform="translate(17, -7)"><circle cx="8" cy="8" r="4" stroke="none" fill="red" fill-opacity="0.3"/></g><g pointer-events="all" display="none" transform="translate(42, -7)"><circle cx="8" cy="8" r="4" stroke="none" fill="red" fill-opacity="0.3"/></g><g pointer-events="all" display="none" transform="translate(67, -7)"><circle cx="8" cy="8" r="4" stroke="none" fill="red" fill-opacity="0.3"/></g><g pointer-events="all" display="none" transform="translate(42, 32)"><circle cx="8" cy="8" r="4" stroke="none" fill="red" fill-opacity="0.3"/></g></g></g></g><g id="_E7C156A5-B412-4180-B700-2B8C174EB6EF" bpmn2nodeid="_DBC4410E-CD6E-420E-897C-FAE64E141A63"><g class="stencils" transform="translate(340, 140)"><g class="me"><g pointer-events="fill" oryx:minimumSize="50 40" id="_E7C156A5-B412-4180-B700-2B8C174EB6EF">   	<defs id="_E7C156A5-B412-4180-B700-2B8C174EB6EF__E7C156A5-B412-4180-B700-2B8C174EB6EF_17"> 		<radialGradient id="_E7C156A5-B412-4180-B700-2B8C174EB6EFbackground" cx="10%" cy="10%" r="100%" fx="10%" fy="10%"> 			<stop offset="0%" stop-color="#ffffff" stop-opacity="1" id="_E7C156A5-B412-4180-B700-2B8C174EB6EF__E7C156A5-B412-4180-B700-2B8C174EB6EF_18"/> 			<stop id="_E7C156A5-B412-4180-B700-2B8C174EB6EFfill_el" offset="100%" stop-color="#fafad2" stop-opacity="1"/> 		</radialGradient> 		<radialGradient id="_E7C156A5-B412-4180-B700-2B8C174EB6EFborderbackground" cx="10%" cy="10%" r="100%" fx="10%" fy="10%"> 			<stop offset="0%" stop-color="#ffffff" stop-opacity="1" id="_E7C156A5-B412-4180-B700-2B8C174EB6EF__E7C156A5-B412-4180-B700-2B8C174EB6EF_19"/> 			<stop id="_E7C156A5-B412-4180-B700-2B8C174EB6EFfill_border" offset="100%" stop-color="#000000" stop-opacity="1" stroke="#000000"/> 		</radialGradient> 	</defs> 	 	<rect id="_E7C156A5-B412-4180-B700-2B8C174EB6EFtext_frame" oryx:anchors="bottom top right left" x="1" y="1" width="94" height="79" rx="10" ry="10" stroke="none" stroke-width="0" fill="none"/> 	<rect id="_E7C156A5-B412-4180-B700-2B8C174EB6EFbg_frame" oryx:resize="vertical horizontal" x="0" y="0" width="100" height="80" rx="10" ry="10" stroke="#000000" stroke-width="1" fill="url(#_E7C156A5-B412-4180-B700-2B8C174EB6EFbackground) #ffffcc"/> 		<text font-size="12" id="_E7C156A5-B412-4180-B700-2B8C174EB6EFtext_name" x="50" y="40" oryx:align="middle center" oryx:fittoelem="text_frame" stroke="black" text-anchor="middle" stroke-width="0pt" letter-spacing="-0.01px" fill="#000000" transform="rotate(0 50 40)" visibility="inherit" oryx:fontSize="12"><tspan x="50" y="40" dy="-1">TASK2_WITH_</tspan><tspan x="50" y="40" dy="11" id="ext-gen1131">OUTPUT_INPUT</tspan></text>     <g id="_E7C156A5-B412-4180-B700-2B8C174EB6EFmanualTask" transform="scale(0.7,0.7) translate(8,8)" display="none">     	<path oryx:anchors="top left" id="_E7C156A5-B412-4180-B700-2B8C174EB6EFframe" style="opacity:1;fill:none;fill-opacity:1;stroke-width:1" d="M0.5,3.751l4.083-3.25c0,0,11.166,0.083,12.083,0.083s-2.417,2.917-1.5,2.917     s11.667,0,12.584,0c1.166,1.708-0.168,3.167-0.834,3.667s0.875,1.917-1,4.417c-0.75,0.25,0.75,1.875-1.333,3.333     c-1.167,0.583,0.583,1.542-1.25,2.833c-1.167,0-20.833,0.083-20.833,0.083l-2-1.333V3.751z" stroke="#000000"/> 		<path id="_E7C156A5-B412-4180-B700-2B8C174EB6EFframe2" oryx:anchors="top left" style="opacity:1;fill:none;stroke-width:2" d="M 13.5 7 L 27 7" stroke="#000000"/> 		<path id="_E7C156A5-B412-4180-B700-2B8C174EB6EFframe3" oryx:anchors="top left" style="opacity:1;fill:none;stroke-width:2" d="M 13.5 11 L 26 11" stroke="#000000"/> 		<path id="_E7C156A5-B412-4180-B700-2B8C174EB6EFframe4" oryx:anchors="top left" style="opacity:1;fill:none;stroke-width:1.5" d="M 14 14.5 L 25 14.5" stroke="#000000"/> 		<path id="_E7C156A5-B412-4180-B700-2B8C174EB6EFframe5" oryx:anchors="top left" style="opacity:1;fill:none;stroke-width:1.5" d="M 8.2 3.1 L 15 3.1" stroke="#000000"/> 	</g> 	 	<g id="_E7C156A5-B412-4180-B700-2B8C174EB6EFbusinessRuleTask" transform="scale(0.7,0.7) translate(8,8)" display="none"> 		<rect id="_E7C156A5-B412-4180-B700-2B8C174EB6EFframe6" oryx:anchors="top left" x="0" y="0" width="22" height="4" style="opacity:1;fill:#B3B1B3;fill-opacity:1;" stroke="#000000"/> 		<rect id="_E7C156A5-B412-4180-B700-2B8C174EB6EFframe7" oryx:anchors="top left" x="0" y="4" style="opacity:1;fill:none;" width="22" height="12" stroke="#000000"/> 		<path id="_E7C156A5-B412-4180-B700-2B8C174EB6EFframe8" oryx:anchors="top left" style="opacity:1;fill:none;" d="M 0 10 L 22 10" stroke="#000000"/> 		<path id="_E7C156A5-B412-4180-B700-2B8C174EB6EFframe9" oryx:anchors="top left" style="opacity:1; fill:none;" d="M 7 4 L 7 16" stroke="#000000"/> 	</g> 	 	<g id="_E7C156A5-B412-4180-B700-2B8C174EB6EFscriptTask" transform="scale(0.7,0.7) translate(8,8)" display="none"> 		<path oryx:anchors="top left" id="_E7C156A5-B412-4180-B700-2B8C174EB6EFframe10" style="opacity:1;fill:none;" stroke="#000000" d="M6.402,0.5h14.5c0,0-5.833,2.833-5.833,5.583s4.417,6,4.417,9.167    s-4.167,5.083-4.167,5.083H0.235c0,0,5-2.667,5-5s-4.583-6.75-4.583-9.25S6.402,0.5,6.402,0.5z"/> 		<path oryx:anchors="top left" id="_E7C156A5-B412-4180-B700-2B8C174EB6EFframe11" style="opacity:1;fill:none;stroke-width:1.5" d="M 3.5 4.5 L 13.5 4.5" stroke="#000000"/> 		<path oryx:anchors="top left" id="_E7C156A5-B412-4180-B700-2B8C174EB6EFframe12" style="opacity:1;fill:none;stroke-width:1.5" d="M 3.8 8.5 L 13.8 8.5" stroke="#000000"/> 		<path oryx:anchors="top left" id="_E7C156A5-B412-4180-B700-2B8C174EB6EFframe13" style="opacity:1;fill:none;stroke-width:1.5" d="M 6.3 12.5 L 16.3 12.5" stroke="#000000"/> 		<path oryx:anchors="top left" id="_E7C156A5-B412-4180-B700-2B8C174EB6EFframe14" style="opacity:1;fill:none;stroke-width:1.5" d="M 6.5 16.5 L 16.5 16.5" stroke="#000000"/> 	</g> 	 	<g id="_E7C156A5-B412-4180-B700-2B8C174EB6EFuserTask" transform="scale(0.7,0.7) translate(8,8)" display="inherit"> 		<path id="_E7C156A5-B412-4180-B700-2B8C174EB6EFframe15" oryx:anchors="top left" style="opacity:1;fill:#F4F6F7" stroke="#000000" d="M0.585,24.167h24.083v-7.833c0,0-2.333-3.917-7.083-5.167h-9.25    c-4.417,1.333-7.833,5.75-7.833,5.75L0.585,24.167z"/> 		<path id="_E7C156A5-B412-4180-B700-2B8C174EB6EFframe16" oryx:anchors="top left" style="opacity:1;fill:none" d="M 6 20 L 6 24" stroke="#000000"/> 		<path id="_E7C156A5-B412-4180-B700-2B8C174EB6EFframe17" oryx:anchors="top left" style="opacity:1;fill:none" d="M 20 20 L 20 24" stroke="#000000"/> 		<circle id="_E7C156A5-B412-4180-B700-2B8C174EB6EFframe18" oryx:anchors="top left" fill="black" cx="13.002" cy="5.916" r="5.417" stroke="#000000"/> 		<path id="_E7C156A5-B412-4180-B700-2B8C174EB6EFframe19" oryx:anchors="top left" style="opacity:1;fill:#F0EFF0;" stroke="#000000" d="M8.043,7.083c0,0,2.814-2.426,5.376-1.807s4.624-0.693,4.624-0.693    c0.25,1.688,0.042,3.75-1.458,5.584c0,0,1.083,0.75,1.083,1.5s0.125,1.875-1,3s-5.5,1.25-6.75,0S8.668,12.834,8.668,12    s0.583-1.25,1.25-1.917C8.835,9.5,7.419,7.708,8.043,7.083z"/> 	</g> 	 	<g id="_E7C156A5-B412-4180-B700-2B8C174EB6EFserviceTask" transform="scale(0.7,0.7) translate(8,8)" display="none"> 		<polygon oryx:anchors="top left" id="_E7C156A5-B412-4180-B700-2B8C174EB6EFframe20" style="opacity:1;fill:#ffffff" stroke="#000000" points="15.392,5.064 17.954,2.502 20.347,4.895 17.786,7.455     18.729,9.732 22.353,9.732 22.353,13.115 18.731,13.115 17.788,15.392 20.351,17.955 17.958,20.347 15.397,17.786 13.12,18.729     13.12,22.353 9.737,22.353 9.737,18.731 7.46,17.788 4.897,20.35 2.506,17.958 5.066,15.397 4.124,13.12 0.5,13.12 0.5,9.737     4.121,9.737 5.065,7.461 2.503,4.898 4.895,2.506 7.455,5.066 9.732,4.125 9.732,0.5 13.116,0.5 13.116,4.121 "/> 		<circle oryx:anchors="top left" id="_E7C156A5-B412-4180-B700-2B8C174EB6EFframe21" style="opacity:1;fill:none" stroke="#000000" cx="11.427" cy="11.426" r="3.714"/> 		<polygon oryx:anchors="top left" id="_E7C156A5-B412-4180-B700-2B8C174EB6EFframe22" style="opacity:1;fill:#ffffff" stroke="#000000" points="21.392,11.064 23.954,8.502 26.347,10.895 23.786,13.455     24.729,15.732 28.353,15.732 28.353,19.115 24.731,19.115 23.788,21.392 26.351,23.955 23.958,26.347 21.397,23.786 19.12,24.729     19.12,28.353 15.737,28.353 15.737,24.731 13.46,23.788 10.897,26.35 8.506,23.958 11.066,21.397 10.124,19.12 6.5,19.12     6.5,15.737 10.121,15.737 11.065,13.461 8.503,10.898 10.895,8.506 13.455,11.066 15.732,10.125 15.732,6.5 19.116,6.5     19.116,10.121 "/> 		<circle oryx:anchors="top left" id="_E7C156A5-B412-4180-B700-2B8C174EB6EFframe23" style="opacity:1;fill:none;" stroke="#000000" cx="17.427" cy="17.426" r="3.714"/> 	</g> 	 	<g id="_E7C156A5-B412-4180-B700-2B8C174EB6EFsendTask" display="none"> 		<path id="_E7C156A5-B412-4180-B700-2B8C174EB6EFstframe24" oryx:anchors="left top" stroke="#FFFFFF" fill="black" stroke-width="1" d="M8,11 L8,21 L24,21 L24,11 L16,17z"/> 		<path id="_E7C156A5-B412-4180-B700-2B8C174EB6EFstframe25" oryx:anchors="left top" stroke="#FFFFFF" fill="black" stroke-width="1" d="M7,10 L16,17 L25 10z"/> 	</g> 	 	<g id="_E7C156A5-B412-4180-B700-2B8C174EB6EFreceiveTask" display="none"> 		<path id="_E7C156A5-B412-4180-B700-2B8C174EB6EFframe26" oryx:anchors="left top" stroke="#000000" fill="none" stroke-width="1" d="M8,11 L8,21 L24,21 L24,11z M8,11 L16,17 L24,11"/> 	</g> 	 	<g id="_E7C156A5-B412-4180-B700-2B8C174EB6EFnone" display="none"/>  	<g id="_E7C156A5-B412-4180-B700-2B8C174EB6EFsequential" display="none">         <path oryx:anchors="bottom" fill="none" stroke="#000000" stroke-width="2" d="M46,76h10M46,72h10 M46,68h10" id="_E7C156A5-B412-4180-B700-2B8C174EB6EF__E7C156A5-B412-4180-B700-2B8C174EB6EF_20"/>     </g>   </g></g><g class="children" style="overflow:hidden"/><g class="edge"/></g><g class="controls"><g class="dockers"/><g class="magnets" transform="translate(340, 140)"><g pointer-events="all" display="none" transform="translate(-7, 12)"><circle cx="8" cy="8" r="4" stroke="none" fill="red" fill-opacity="0.3"/></g><g pointer-events="all" display="none" transform="translate(-7, 32)"><circle cx="8" cy="8" r="4" stroke="none" fill="red" fill-opacity="0.3"/></g><g pointer-events="all" display="none" transform="translate(-7, 52)"><circle cx="8" cy="8" r="4" stroke="none" fill="red" fill-opacity="0.3"/></g><g pointer-events="all" display="none" transform="translate(17, 71)"><circle cx="8" cy="8" r="4" stroke="none" fill="red" fill-opacity="0.3"/></g><g pointer-events="all" display="none" transform="translate(42, 71)"><circle cx="8" cy="8" r="4" stroke="none" fill="red" fill-opacity="0.3"/></g><g pointer-events="all" display="none" transform="translate(67, 71)"><circle cx="8" cy="8" r="4" stroke="none" fill="red" fill-opacity="0.3"/></g><g pointer-events="all" display="none" transform="translate(91, 12)"><circle cx="8" cy="8" r="4" stroke="none" fill="red" fill-opacity="0.3"/></g><g pointer-events="all" display="none" transform="translate(91, 32)"><circle cx="8" cy="8" r="4" stroke="none" fill="red" fill-opacity="0.3"/></g><g pointer-events="all" display="none" transform="translate(91, 52)"><circle cx="8" cy="8" r="4" stroke="none" fill="red" fill-opacity="0.3"/></g><g pointer-events="all" display="none" transform="translate(17, -7)"><circle cx="8" cy="8" r="4" stroke="none" fill="red" fill-opacity="0.3"/></g><g pointer-events="all" display="none" transform="translate(42, -7)"><circle cx="8" cy="8" r="4" stroke="none" fill="red" fill-opacity="0.3"/></g><g pointer-events="all" display="none" transform="translate(67, -7)"><circle cx="8" cy="8" r="4" stroke="none" fill="red" fill-opacity="0.3"/></g><g pointer-events="all" display="none" transform="translate(42, 32)"><circle cx="8" cy="8" r="4" stroke="none" fill="red" fill-opacity="0.3"/></g></g></g></g><g id="_B14786AD-5332-4597-A2B8-3460544AD85D" bpmn2nodeid="_DE01E2BB-B3A3-4CC1-92EC-0D497A65EFEE"><g class="stencils" transform="translate(485, 166)"><g class="me"><g pointer-events="fill" id="_B14786AD-5332-4597-A2B8-3460544AD85D">      <defs id="_B14786AD-5332-4597-A2B8-3460544AD85D__B14786AD-5332-4597-A2B8-3460544AD85D_5"> 		<radialGradient id="_B14786AD-5332-4597-A2B8-3460544AD85Dbackground" cx="10%" cy="10%" r="100%" fx="10%" fy="10%"> 			<stop offset="0%" stop-color="#ffffff" stop-opacity="1" id="_B14786AD-5332-4597-A2B8-3460544AD85D__B14786AD-5332-4597-A2B8-3460544AD85D_6"/> 			<stop id="_B14786AD-5332-4597-A2B8-3460544AD85Dfill_el" offset="100%" stop-color="#ff6347" stop-opacity="1"/> 		</radialGradient> 	</defs> 	     <circle id="_B14786AD-5332-4597-A2B8-3460544AD85Dbg_frame" cx="14" cy="14" r="14" stroke="#000000" fill="url(#_B14786AD-5332-4597-A2B8-3460544AD85Dbackground) white" stroke-width="3"/> 	<text font-size="11" id="_B14786AD-5332-4597-A2B8-3460544AD85Dtext_name" x="14" y="30" oryx:align="top center" stroke="black" stroke-width="0pt" letter-spacing="-0.01px" fill="#000000" text-anchor="middle" transform="rotate(0 14 30)" visibility="inherit" oryx:fontSize="11"/>   </g></g><g class="children" style="overflow:hidden"/><g class="edge"/></g><g class="controls"><g class="dockers"/><g class="magnets" transform="translate(485, 166)"><g pointer-events="all" display="none" transform="translate(6, 6)"><circle cx="8" cy="8" r="4" stroke="none" fill="red" fill-opacity="0.3"/></g></g></g></g><g id="_C611ABFF-4632-486D-A48C-3ADA4B28D7B1" bpmn2nodeid="_2A131C7F-A6CC-494F-ACF1-0C54C6BA74D6"><g class="stencils" transform="translate(171, 330)"><g class="me"><g pointer-events="fill" id="_C611ABFF-4632-486D-A48C-3ADA4B28D7B1"> 	    <defs id="_C611ABFF-4632-486D-A48C-3ADA4B28D7B1__C611ABFF-4632-486D-A48C-3ADA4B28D7B1_9"> 			<radialGradient id="_C611ABFF-4632-486D-A48C-3ADA4B28D7B1background" cx="1%" cy="1%" r="1%" fx="1%" fy="1%"> 				<stop offset="0%" stop-color="#ffffff" stop-opacity="1" id="_C611ABFF-4632-486D-A48C-3ADA4B28D7B1__C611ABFF-4632-486D-A48C-3ADA4B28D7B1_10"/> 				<stop id="_C611ABFF-4632-486D-A48C-3ADA4B28D7B1fill_el" offset="100%" stop-color="#C0C0C0" stop-opacity="1"/> 			</radialGradient> 		</defs> 		 		<polyline id="_C611ABFF-4632-486D-A48C-3ADA4B28D7B1frame" oryx:resize="vertical horizontal" oryx:anchors="left right" stroke="#000000" fill="url(#_C611ABFF-4632-486D-A48C-3ADA4B28D7B1background)" stroke-width="1" points="78,97 0,97 0,0 78,0"/> 		 		<polyline id="_C611ABFF-4632-486D-A48C-3ADA4B28D7B1frame2" oryx:anchors="right top bottom" stroke="#000000" fill="url(#_C611ABFF-4632-486D-A48C-3ADA4B28D7B1background)" stroke-width="1" points="78,97 88,97 88,10 78,10"/> 		 		<polyline id="_C611ABFF-4632-486D-A48C-3ADA4B28D7B1frame3" oryx:anchors="right top" stroke="#000000" fill="url(#_C611ABFF-4632-486D-A48C-3ADA4B28D7B1background)" stroke-width="1" points="88,10 78,0 78,10 88,10"/> 		 		<rect id="_C611ABFF-4632-486D-A48C-3ADA4B28D7B1unvisibleBorder" x="0" y="0" height="97" width="88" stroke="none" fill="none" oryx:resize="horizontal vertical"/> 		 		<text font-size="12" id="_C611ABFF-4632-486D-A48C-3ADA4B28D7B1text_name" x="44" y="48.5" oryx:align="middle center" oryx:fittoelem="unvisibleBorder" stroke="black" stroke-width="0pt" letter-spacing="-0.01px" fill="#000000" text-anchor="middle" transform="rotate(0 44 48.5)" visibility="inherit" oryx:fontSize="12"><tspan x="44" y="48.5" dy="-1" id="ext-gen1129">DATA_OBJEC</tspan><tspan x="44" y="48.5" dy="11">T_1</tspan></text> 		 		<text font-size="11" id="_C611ABFF-4632-486D-A48C-3ADA4B28D7B1text_state" x="44" y="80" oryx:align="middle center" stroke="black" oryx:anchors="bottom" stroke-width="0pt" letter-spacing="-0.01px" text-anchor="middle" transform="rotate(0 44 80)" visibility="inherit" oryx:fontSize="11"/> 		 		<polygon oryx:anchors="left top" id="_C611ABFF-4632-486D-A48C-3ADA4B28D7B1input" stroke="black" fill="white" stroke-width="1.4" points="9,13 19,13 19,10 25,16 19,22 19,19 9,19" stroke-linecap="butt" stroke-linejoin="miter" stroke-miterlimit="10" display="none"/> 		 		<polygon oryx:anchors="left top" id="_C611ABFF-4632-486D-A48C-3ADA4B28D7B1output" stroke="black" fill="black" stroke-width="1" points="9,13 19,13 19,10 25,16 19,22 19,19 9,19" stroke-linecap="butt" stroke-linejoin="miter" stroke-miterlimit="10" display="none"/> 		 		undefined 	</g></g><g class="children" style="overflow:hidden"/><g class="edge"/></g><g class="controls"><g class="dockers"/><g class="magnets" transform="translate(171, 330)"><g pointer-events="all" display="none" transform="translate(-8, 40.5)"><circle cx="8" cy="8" r="4" stroke="none" fill="red" fill-opacity="0.3"/></g><g pointer-events="all" display="none" transform="translate(36, 89)"><circle cx="8" cy="8" r="4" stroke="none" fill="red" fill-opacity="0.3"/></g><g pointer-events="all" display="none" transform="translate(80, 40.5)"><circle cx="8" cy="8" r="4" stroke="none" fill="red" fill-opacity="0.3"/></g><g pointer-events="all" display="none" transform="translate(36, -8)"><circle cx="8" cy="8" r="4" stroke="none" fill="red" fill-opacity="0.3"/></g><g pointer-events="all" display="none" transform="translate(36, 40.5)"><circle cx="8" cy="8" r="4" stroke="none" fill="red" fill-opacity="0.3"/></g></g></g></g></g><g class="edge"><g id="_5A8EE2A0-9216-44A3-B1BB-014D4BDCEEC8" bpmn2nodeid="_703E4DC3-91B0-4BD3-A113-AFBBAB6CCD3C"><g class="stencils"><g class="me"><g pointer-events="painted" bpmn2nodeid="_703E4DC3-91B0-4BD3-A113-AFBBAB6CCD3C"><path id="_5A8EE2A0-9216-44A3-B1BB-014D4BDCEEC8_1" d="M105.6484375 180L164.1953125 180 " stroke="#000000" fill="none" stroke-width="2" stroke-linecap="round" stroke-linejoin="round" marker-start="url(#_5A8EE2A0-9216-44A3-B1BB-014D4BDCEEC8start)" marker-end="url(#_5A8EE2A0-9216-44A3-B1BB-014D4BDCEEC8end)"/></g><text id="_5A8EE2A0-9216-44A3-B1BB-014D4BDCEEC8text_name" font-size="12" x="119.6484375" y="166" oryx:edgePosition="startTop" stroke-width="0pt" letter-spacing="-0.01px" fill="#000000" text-anchor="start" transform="rotate(360 105.6484375 180)" visibility="inherit" oryx:fontSize="12"/></g><g class="children" style="overflow:hidden"/><g class="edge"/></g><g class="controls"><g class="dockers"/><g class="magnets"/></g></g><g id="_55C9E1D7-9F32-426F-A445-1439E2D6460A" bpmn2nodeid="_A7F5D45F-D081-45FB-9903-D147A6D66312"><g class="stencils"><g class="me"><g pointer-events="painted" bpmn2nodeid="_A7F5D45F-D081-45FB-9903-D147A6D66312"><path id="_55C9E1D7-9F32-426F-A445-1439E2D6460A_1" d="M265.21875 180L339.78125 180 " stroke="#000000" fill="none" stroke-width="2" stroke-linecap="round" stroke-linejoin="round" marker-start="url(#_55C9E1D7-9F32-426F-A445-1439E2D6460Astart)" marker-end="url(#_55C9E1D7-9F32-426F-A445-1439E2D6460Aend)"/></g><text id="_55C9E1D7-9F32-426F-A445-1439E2D6460Atext_name" font-size="12" x="279.21875" y="166" oryx:edgePosition="startTop" stroke-width="0pt" letter-spacing="-0.01px" fill="#000000" text-anchor="start" transform="rotate(360 265.21875 180)" visibility="inherit" oryx:fontSize="12"/></g><g class="children" style="overflow:hidden"/><g class="edge"/></g><g class="controls"><g class="dockers"/><g class="magnets"/></g></g><g id="_EA5545E7-853F-4E45-9BFA-8508389F9DAA" bpmn2nodeid="_ECAE86DD-1217-43EA-B626-7126E2C59DBF"><g class="stencils"><g class="me"><g pointer-events="painted" bpmn2nodeid="_ECAE86DD-1217-43EA-B626-7126E2C59DBF"><path id="_EA5545E7-853F-4E45-9BFA-8508389F9DAA_1" d="M440.390625 180L484.375 180 " stroke="#000000" fill="none" stroke-width="2" stroke-linecap="round" stroke-linejoin="round" marker-start="url(#_EA5545E7-853F-4E45-9BFA-8508389F9DAAstart)" marker-end="url(#_EA5545E7-853F-4E45-9BFA-8508389F9DAAend)"/></g><text id="_EA5545E7-853F-4E45-9BFA-8508389F9DAAtext_name" font-size="12" x="454.390625" y="166" oryx:edgePosition="startTop" stroke-width="0pt" letter-spacing="-0.01px" fill="#000000" text-anchor="start" transform="rotate(360 440.390625 180)" visibility="inherit" oryx:fontSize="12"/></g><g class="children" style="overflow:hidden"/><g class="edge"/></g><g class="controls"><g class="dockers"/><g class="magnets"/></g></g><g id="_56AC2834-B11E-452B-BB0E-CB1F4E497F73" bpmn2nodeid="_80518A01-DE64-4C9C-B50E-2AD380FB2155"><g class="stencils"><g class="me"><g pointer-events="painted" bpmn2nodeid="_80518A01-DE64-4C9C-B50E-2AD380FB2155"><path id="_56AC2834-B11E-452B-BB0E-CB1F4E497F73_1" d="M215 220.544921875L215 329.42578125 " stroke="#000000" fill="none" stroke-width="2" stroke-dasharray="3, 4" marker-end="url(#_56AC2834-B11E-452B-BB0E-CB1F4E497F73end)"/></g><text id="_56AC2834-B11E-452B-BB0E-CB1F4E497F73text_name" x="215" y="268.9853515625" oryx:edgePosition="midTop" oryx:offsetTop="6" style="font-size:9px;" stroke-width="0pt" letter-spacing="-0.01px" text-anchor="middle" transform="rotate(-90 215 274.9853515625)" visibility="inherit" oryx:fontSize="12"/></g><g class="children" style="overflow:hidden"/><g class="edge"/></g><g class="controls"><g class="dockers"/><g class="magnets"/></g></g><g id="_4FDFCEF5-2CD3-47FD-9B9F-4DDD07E7807E" bpmn2nodeid="_EAD01137-0332-4906-8D05-2DF8F2C697EE"><g class="stencils"><g class="me"><g pointer-events="painted" bpmn2nodeid="_EAD01137-0332-4906-8D05-2DF8F2C697EE"><path id="_4FDFCEF5-2CD3-47FD-9B9F-4DDD07E7807E_1" d="M259.75 378.5L390 378.5 L390 220.544921875 " stroke="#000000" fill="none" stroke-width="2" stroke-dasharray="3, 4" marker-end="url(#_4FDFCEF5-2CD3-47FD-9B9F-4DDD07E7807Eend)"/></g><text id="_4FDFCEF5-2CD3-47FD-9B9F-4DDD07E7807Etext_name" x="396" y="372.5" oryx:edgePosition="midTop" oryx:offsetTop="6" style="font-size:9px;" stroke-width="0pt" letter-spacing="-0.01px" text-anchor="start" transform="rotate(270 390 378.5)" visibility="inherit" oryx:fontSize="12"/></g><g class="children" style="overflow:hidden"/><g class="edge"/></g><g class="controls"><g class="dockers"/><g class="magnets"/></g></g></g><text id="_200F8B5C-6CC7-4595-8EB9-7B4F0C15D584" style="stroke-width:1;fill:rgb(177,194,214);font-family:arial;font-weight:bold" font-size="12" onclick="ORYX.Plugins.CanvasTitle.openTextualAnalysis()" onmouseover="ORYX.Plugins.CanvasTitle.addToolTip('_200F8B5C-6CC7-4595-8EB9-7B4F0C15D584')" transform="translate(10, 20)">TestOutputInputDataObject v.1.0 (com.myspace.testdataobjects.TestOutputInputDataObject)</text></g></g></svg>